<?xml version="1.0" encoding="utf-8"?>
<!-- Generator: Adobe Illustrator 21.0.0, SVG Export Plug-In . SVG Version: 6.00 Build 0)  -->
<svg version="1.1" id="Layer_1" xmlns="http://www.w3.org/2000/svg" xmlns:xlink="http://www.w3.org/1999/xlink" x="0px" y="0px"
	 width="1400px" height="1400px" viewBox="0 0 1400 1400" enable-background="new 0 0 1400 1400" xml:space="preserve">
<!-- <rect fill="#F3F3F3" width="1400" height="1400"/> -->
<text transform="matrix(1 0 0 1 233.571 1314.7572)"><tspan x="0" y="0" fill="#383838" font-family="'Roboto-Regular'" font-size="16.9549px">Lo</tspan><tspan x="18.8" y="0" fill="#383838" font-family="'Roboto-Regular'" font-size="16.9549px">r</tspan><tspan x="24.4" y="0" fill="#383838" font-family="'Roboto-Regular'" font-size="16.9549px">em ipsum dolor sit amet, consectetur adipiscing elit, sed do eiusmod tempor incididunt ut labo</tspan><tspan x="732.9" y="0" fill="#383838" font-family="'Roboto-Regular'" font-size="16.9549px">r</tspan><tspan x="738.5" y="0" fill="#383838" font-family="'Roboto-Regular'" font-size="16.9549px">e et dolo</tspan><tspan x="803.4" y="0" fill="#383838" font-family="'Roboto-Regular'" font-size="16.9549px">r</tspan><tspan x="809" y="0" fill="#383838" font-family="'Roboto-Regular'" font-size="16.9549px">e magna aliqua. </tspan><tspan x="55.3" y="20.3" fill="#383838" font-family="'Roboto-Regular'" font-size="16.9549px">Ut enim ad minim </tspan><tspan x="192" y="20.3" fill="#383838" font-family="'Roboto-Regular'" font-size="16.9549px">v</tspan><tspan x="200.1" y="20.3" fill="#383838" font-family="'Roboto-Regular'" font-size="16.9549px">eniam, quis nostrud e</tspan><tspan x="361.4" y="20.3" fill="#383838" font-family="'Roboto-Regular'" font-size="16.9549px">x</tspan><tspan x="369.6" y="20.3" fill="#383838" font-family="'Roboto-Regular'" font-size="16.9549px">e</tspan><tspan x="378.6" y="20.3" fill="#383838" font-family="'Roboto-Regular'" font-size="16.9549px">r</tspan><tspan x="384.2" y="20.3" fill="#383838" font-family="'Roboto-Regular'" font-size="16.9549px">citation ullamco laboris nisi ut aliquip ex ea commodo consequat.</tspan></text>
<text transform="matrix(1 0 0 1 530.0742 1280.6836)"><tspan x="0" y="0" fill="#BA3E3E" font-family="'Roboto-Black'" font-size="47.4876px">A</tspan><tspan x="31.9" y="0" fill="#BA3E3E" font-family="'Roboto-Black'" font-size="47.4876px">CUPUN</tspan><tspan x="190.4" y="0" fill="#BA3E3E" font-family="'Roboto-Black'" font-size="47.4876px">C</tspan><tspan x="220.9" y="0" fill="#BA3E3E" font-family="'Roboto-Black'" font-size="47.4876px">TURE</tspan></text>
<g>
	<g>
		<path fill="#BA3E3E" d="M572.3,173.8c-29.7,0-53.8-24.1-53.8-53.8s24.1-53.8,53.8-53.8c29.7,0,53.8,24.1,53.8,53.8
			S602,173.8,572.3,173.8z"/>
	</g>
	<g>
		<path fill="#BA3E3E" d="M129.9,334.6c-29.7,0-53.8-24.1-53.8-53.8c0-29.7,24.1-53.8,53.8-53.8c29.7,0,53.8,24.1,53.8,53.8
			C183.7,310.5,159.5,334.6,129.9,334.6z"/>
	</g>
	<path fill="#F3CAAE" d="M621.3,660.1c-2.1-2.6-14.6-19.1-32.6-32.5c-18-13.4-16.4-34-18.2-49.4c-1.8-15.5-4.1-42.8-8-62.4
		c-3.9-19.5-17.1-48-29.2-71.2c-12-23.3-7.8-56.2-7.1-85.4c0.6-24.6-2-34.6-9.5-47.4c-0.8-1.4-1.6-2.8-2.3-4.2
		c-9.4-18-26.9-36.7-52.3-43.3c-39.9-10.4-52.2-27.9-52.2-45.8c0-18,4.1-23.6,4.1-23.6c11.7-2.9,16.5-19,18.3-29.3
		c0.8-4.5-2.9-8.5-7.8-8.5c0-73.1-47.6-71.2-51.9-70.9c-4.3-0.3-51.9-2.2-51.9,70.9c-4.9,0-8.6,4.1-7.8,8.5
		c1.9,10.2,6.6,26.4,18.3,29.3c0,0,4.1,5.7,4.1,23.6c0,18-12.3,35.4-52.2,45.8c-25.4,6.6-42.9,25.3-52.3,43.3
		c-0.7,1.4-1.5,2.8-2.3,4.2c-7.5,12.8-10.1,22.8-9.5,47.4c0.8,29.2,5,62.1-7.1,85.4c-12,23.3-25.3,51.7-29.2,71.2
		c-3.9,19.5-6.2,46.9-8,62.4c-1.8,15.5-0.2,36.1-18.2,49.4c-18,13.4-30.5,29.9-32.6,32.5c-2.1,2.6-3.8,6.5,1.7,7.7
		c5.4,1.2,10.7-2.7,11.6-3.8c0.9-1,6.5-5.7,8.7-6c0,0-0.6,6.5-1.1,10c-0.4,3.5-0.3,7.6-1.3,13.1c-1,5.6-3.3,15.8-4.2,20
		c-0.9,4.2-7.7,20.7-0.1,20.9c0,0,2.4,0.6,6.6-9.5c4.2-10.1,6.8-24.9,9.8-26.6c0,0,0.6-0.6-1,6.6c-1.7,7.2-7.8,24.2-7.7,29.5
		c0.2,5.3,0.5,6,3.8,6.5c3.3,0.5,5.1-9.2,6.5-13.4c1.3-4.2,9.1-26.4,12.2-30c-0.2,0.6-4.2,9.9-4.5,13.8c-0.3,4.1-8.3,29-2.7,29.6
		c5.6,0.6,7.4-10.4,8.6-14c1.1-3.4,8-25.8,8.8-28.3c-0.4,1.5-2.3,10.3-2.1,13.5c0.3,3.4-3,21.8,2.4,22.5c6.2,0.1,5.6-17.6,9.4-29.4
		c3.8-11.8,9.9-18.9,9.9-33.1c0-14.2,5.1-38.2,5.1-38.2c1-6.4,3.1-13,7.2-18.2c9.5-11.9,26.8-67.9,28.9-75.3
		c2.1-7.4,15.7-42.7,15.4-61.7c-0.3-18.9,6-59.2,10.9-70.2l12,16.6c0,0,5.6,74.2,2.6,93.1c-3.1,18.9-23,66.2-25.1,156
		c-2,89.8,8.2,125.7,7.2,166.8c-1,41.1-17.9,115.8-5.1,163.1c12.8,47.3,29.7,84.6,29.7,107.8v32.9c0,8.4-2.6,16.7-7.4,23.8
		c-5.2,7.6-12.1,16.6-17.7,19.4c-10.2,5.2-2,18,12.8,18h39.8c3.7,0,7.3-1.1,10.3-3.2c4.8-3.3,7.3-8.7,6.8-14.2
		c-1.1-10.7-3.2-30-5.2-52.6c-3.1-34.5-2-119.6,3.1-151.2c5.1-31.7-13.8-65.2-4.6-87.9c9-22.2,18.5-36.7,20.4-112.2c0-2,0.1-4,0.1-6
		c0-3.1,0.5-13,7.2-27.3c7.4-15.8,17.5-62.2,19.4-90.7c1.9,28.5,12,74.8,19.4,90.7c6.7,14.4,7.2,24.3,7.2,27.3c0,2,0,4,0.1,6
		c1.8,75.5,11.3,90,20.4,112.2c9.2,22.7-9.7,56.2-4.6,87.9c5.1,31.7,6.1,116.7,3.1,151.2c-2,22.6-4,41.9-5.2,52.6
		c-0.6,5.5,2,10.9,6.8,14.2c3,2,6.6,3.2,10.3,3.2h39.8c14.8,0,23-12.8,12.8-18c-5.6-2.8-12.5-11.8-17.7-19.4
		c-4.8-7.1-7.4-15.4-7.4-23.8v-32.9c0-23.2,16.9-60.5,29.7-107.8c12.8-47.3-4.1-121.9-5.1-163.1c-1-41.1,9.2-77,7.2-166.8
		c-2-89.8-22-137.1-25.1-156c-3.1-18.9,2.6-93.1,2.6-93.1l12-16.6c4.9,11,11.2,51.3,10.9,70.2c-0.3,18.9,13.3,54.3,15.4,61.7
		c2.1,7.4,19.4,63.4,28.9,75.3c4.1,5.2,6.2,11.8,7.2,18.2c0,0,5.1,24,5.1,38.2c0,14.2,6.1,21.3,9.9,33.1c3.8,11.8,3.2,29.4,9.4,29.4
		c5.4-0.8,2.1-19.1,2.4-22.5c0.3-3.2-1.7-11.9-2.1-13.5c0.8,2.5,7.7,24.9,8.8,28.3c1.2,3.6,3,14.6,8.6,14c5.6-0.6-2.4-25.6-2.7-29.6
		c-0.3-3.9-4.3-13.2-4.5-13.8c3,3.7,10.8,25.8,12.2,30c1.3,4.2,3.1,13.8,6.5,13.4c3.3-0.4,3.6-1.2,3.8-6.5c0.1-5.3-6-22.3-7.7-29.5
		c-1.7-7.2-1-6.6-1-6.6c3,1.7,5.6,16.5,9.8,26.6c4.2,10.1,6.6,9.5,6.6,9.5c7.5-0.2,0.8-16.7-0.1-20.9c-0.9-4.2-3.2-14.4-4.2-20
		c-1-5.6-0.9-9.6-1.3-13.1c-0.5-3.5-1.1-10-1.1-10c2.3,0.3,7.8,5,8.7,6c0.9,1,6.2,5,11.6,3.8C625.1,666.6,623.4,662.7,621.3,660.1z"
		/>
	<g>
		<path fill="#F3CAAE" d="M1257.8,636.5c-6.4,1.4-12.7-3.2-13.8-4.5c-1.1-1.2-7.7-6.8-10.4-7.2c0,0,0.7,7.7,1.3,11.9
			c0.5,4.2,0.4,9,1.6,15.7c1.3,6.7,3.9,18.8,5,23.9c1.1,5,9.2,24.7,0.2,24.9c0,0-2.8,0.7-7.9-11.3c-5-12-8.1-29.8-11.6-31.7
			c0,0-0.7-0.7,1.3,7.9c2,8.6,9.3,28.9,9.1,35.2c-0.2,6.3-0.5,7.2-4.5,7.7c-4,0.5-6.1-10.9-7.7-16c-1.6-5-10.9-31.4-14.5-35.8
			c0.3,0.7,5,11.8,5.3,16.5c0.4,4.8,9.9,34.6,3.2,35.4c-6.6,0.7-8.8-12.4-10.2-16.7c-1.3-3.9-9-29-10.4-33.4
			c0.6,2.6,2.7,12.1,2.4,15.7c-0.4,4.1,3.6,26-2.9,26.9c-7.4,0.1-6.7-20.9-11.2-35c-4.5-14.1-11.9-22.6-11.9-39.5
			c0-16.9-6-45.6-6-45.6c-1.2-7.6-3.7-15.6-8.6-21.7c-11.3-14.2-31.9-81-34.5-89.8c-2.5-8.8-18.7-51-18.4-73.6
			c0.4-22.6-7.2-70.7-13-83.8l-14.3,19.8c0,0-6.7,88.5-3,111.1c1.5,9.2,6.3,24,11.7,45.6v0c1.9,7.5,3.8,15.7,5.7,24.8
			c0.5,2.4,1,4.8,1.4,7.3c1.5,7.8,3,16.2,4.3,25.3c0,0.1,0,0.1,0,0.1c2.8,19.1,5.1,41,6.2,65.9H825.3c1.1-24.9,3.4-46.8,6.2-65.9
			c0,0,0,0,0-0.1c1.3-9,2.8-17.4,4.3-25.3c0.5-2.5,1-4.9,1.4-7.3c1.9-9.1,3.8-17.4,5.7-24.8v0c2.6-10.5,5.1-19.4,7.2-26.9
			c2.2-7.8,3.8-14,4.6-18.8c3.7-22.6-3-111.1-3-111.1l-14.3-19.8c-5.8,13.1-13.3,61.2-13,83.8c0.4,22.6-15.9,64.8-18.4,73.6
			c-2.5,8.8-23.2,75.7-34.5,89.8c-4.9,6.2-7.4,14.1-8.6,21.7c0,0-6,28.7-6,45.6c0,16.9-7.3,25.4-11.9,39.5s-3.8,35.1-11.2,35
			c-6.5-0.9-2.5-22.8-2.9-26.9c-0.3-3.6,1.7-13,2.4-15.7c-1.4,4.4-9.1,29.5-10.4,33.4c-1.5,4.3-3.6,17.4-10.2,16.7
			c-6.6-0.7,2.9-30.5,3.2-35.4c0.3-4.7,5.1-15.8,5.3-16.5c-3.6,4.4-12.9,30.8-14.5,35.8c-1.6,5-3.7,16.5-7.7,16
			c-3.9-0.5-4.3-1.4-4.5-7.7c-0.2-6.3,7.2-26.6,9.1-35.2c2-8.6,1.2-7.9,1.2-7.9c-3.6,2-6.6,19.7-11.6,31.7c-5,12-7.9,11.3-7.9,11.3
			c-9-0.2-0.9-19.9,0.2-24.9c1.1-5,3.8-17.2,5-23.9c1.3-6.6,1.1-11.5,1.6-15.7c0.5-4.2,1.3-11.9,1.3-11.9c-2.7,0.4-9.3,5.9-10.4,7.2
			c-1.1,1.3-7.4,5.9-13.8,4.5c-6.5-1.4-4.5-6.1-2-9.1c2.5-3.1,17.4-22.8,38.9-38.8c21.5-15.9,19.6-40.5,21.7-59
			c2.1-18.5,4.8-51.1,9.5-74.4c4.7-23.3,20.4-57.2,34.8-85c9.3-17.9,10.4-40.6,9.9-63.8c-0.3-12-1-24.1-1.4-35.8
			c0-0.8-0.1-1.5-0.1-2.3c-0.8-29.4,2.3-41.2,11.3-56.6c1-1.6,1.9-3.3,2.8-5c6.9-13.3,17.6-27,32-37.3c8.8-6.3,18.9-11.3,30.4-14.3
			c4.3-1.1,8.3-2.3,12-3.5c30.8-10.2,44.6-24.5,48.8-39.9h91.3c4.2,15.4,18,29.8,48.8,39.9c3.7,1.2,7.7,2.4,12,3.5
			c11.5,3,21.6,8,30.4,14.3c14.4,10.3,25.1,24,32,37.3c0.9,1.7,1.8,3.3,2.8,5c9,15.3,12.1,27.2,11.3,56.6c0,0.8,0,1.5-0.1,2.3
			c-0.3,11.7-1.1,23.8-1.4,35.8c-0.6,23.2,0.6,45.8,9.9,63.8c14.3,27.8,30.1,61.7,34.8,85c4.7,23.3,7.4,55.9,9.5,74.4
			c2.2,18.4,0.2,43,21.7,59c21.5,16,36.4,35.7,38.9,38.8C1262.3,630.4,1264.3,635,1257.8,636.5z"/>
		<path opacity="0.61" fill="#DBAB8A" d="M944.8,189.4l-73.3-21.8c-8.2-2.5-16.9-3-25.4-1.5l-19.4,3.3c8.8-6.3,18.9-11.4,30.4-14.3
			c4.3-1.1,8.3-2.3,12-3.5L944.8,189.4z"/>
		<path opacity="0.61" fill="#DBAB8A" d="M775.3,386l8.5,18.9c2,4.5,6.9,7,11.7,6.1l18.8-3.6c0,0-16.4,25-33.7,22.9
			C763.4,428.1,775.3,386,775.3,386z"/>
		<path opacity="0.61" fill="#DBAB8A" d="M693.4,624.8c0,0,3.3-6.9,9.9-7.9c6.6-1,18.7-6.2,24.3-20.1c4.2-10.5,11,19.7,14,35
			c0.6,3.2-2.8,5.7-5.7,4l-4.1-2.5c-9.3-5.6-19.8-8.7-30.6-8.8C698.7,624.5,696.1,624.6,693.4,624.8z"/>
		<path opacity="0.61" fill="#DBAB8A" d="M1100.2,260.1c-14.5-17.6-26.4-49.2-29.7-58.6l12,35.1c6.7,19.4,2.8,40.8-10.3,56.6
			c-10.8,12.9-24.7,26.5-38,30.9c-15.2,5.1-31.4,4.6-43,3.2c-9.5-1.2-17.1-8.7-18.4-18.2l-9-63.3v-5l-0.4,2.5l-0.4-2.5v5l-9,63.3
			c-1.3,9.5-8.9,17-18.4,18.2c-11.6,1.5-27.7,1.9-43-3.2c-13.4-4.5-27.2-18-38-30.9c-13.1-15.7-17-37.2-10.3-56.6l12-35.1
			c-3.3,9.4-15.2,41-29.7,58.6c-16.9,20.5-45.3,10.8-46.1,10.5c0.3,11.7,1.1,23.8,1.4,35.8l39.2-22.2c4.5-2.5,10.1-1.6,13.5,2.2
			l26.3,28.9c48,45.6,97.8,16.1,102.4,13.2c4.6,2.9,54.4,32.3,102.4-13.2l26.3-28.9c3.5-3.8,9.1-4.7,13.5-2.2l39.2,22.2
			c0.3-12,1-24.1,1.4-35.8C1145.5,270.9,1117.1,280.6,1100.2,260.1z"/>
		<path opacity="0.61" fill="#DBAB8A" d="M982.2,189.4l73.3-21.8c8.2-2.5,16.9-3,25.4-1.5l19.4,3.3c-8.8-6.3-18.9-11.4-30.4-14.3
			c-4.3-1.1-8.3-2.3-12-3.5L982.2,189.4z"/>
		<path opacity="0.61" fill="#DBAB8A" d="M1151.7,386l-8.5,18.9c-2,4.5-6.9,7-11.7,6.1l-18.8-3.6c0,0,16.4,25,33.7,22.9
			S1151.7,386,1151.7,386z"/>
		<path opacity="0.61" fill="#DBAB8A" d="M1091.2,521.1c-0.5-2.5-1-4.9-1.4-7.3c-1.9-9.1-3.8-17.4-5.7-24.9c0,0.2,0,0.5,0,0.7
			c1,16.5-7,32.3-20.8,41.5c-25.5,17-62.4,42.2-76.9,55.5c-5.3,4.8-13.4,7.5-22.9,8.7c-9.5-1.2-17.6-3.8-22.9-8.7
			c-14.5-13.4-51.4-38.6-76.9-55.5c-13.8-9.2-21.8-24.9-20.8-41.5c0-0.2,0-0.5,0-0.7c-1.9,7.5-3.8,15.7-5.7,24.9
			c-0.5,2.4-1,4.8-1.4,7.3c-1.5,7.8-3,16.2-4.3,25.3c0.1-0.3,1.1-0.8,2.6-1.4c13.9-5.4,29.6-2.1,40.5,7.9
			c28.6,26.5,61.3,59.5,61.3,59.5h27.2h0.7h27.2c0,0,32.7-33.1,61.3-59.5c10.9-10.1,26.6-13.3,40.5-7.9c1.5,0.6,2.5,1.1,2.6,1.4
			C1094.1,537.3,1092.7,528.9,1091.2,521.1z"/>
		<path opacity="0.61" fill="#DBAB8A" d="M1233.6,624.8c0,0-3.3-6.9-9.9-7.9c-6.6-1-18.7-6.2-24.3-20.1c-4.2-10.5-11,19.7-14,35
			c-0.6,3.2,2.8,5.7,5.7,4l4.1-2.5c9.3-5.6,19.8-8.7,30.6-8.8C1228.3,624.5,1230.9,624.6,1233.6,624.8z"/>
		<path opacity="0.61" fill="#DBAB8A" d="M963.5,356.4c2.2,16.9,3.3,33.8,4,50.7c0.8,16.9,1.1,33.8,1.2,50.7
			c0,16.9-0.3,33.8-1.1,50.7c-0.8,16.9-1.9,33.8-4.1,50.7c-2.2-16.9-3.3-33.8-4.1-50.7c-0.8-16.9-1.1-33.8-1.1-50.7
			c0-16.9,0.3-33.8,1.2-50.7C960.2,390.2,961.4,373.3,963.5,356.4z"/>
		<path opacity="0.61" fill="#DBAB8A" d="M917.9,111.6c1.3,0.9,18.5,14.1,31.4,23.9c8.4,6.4,20,6.4,28.4,0l31.4-23.9H917.9z"/>
	</g>
	<g>
		<circle fill="#BA3E3E" cx="924.2" cy="109.3" r="10.7"/>
		<path fill="#BA3E3E" d="M924.2,95.1c7.8,0,14.2,6.4,14.2,14.2s-6.4,14.2-14.2,14.2c-7.8,0-14.2-6.4-14.2-14.2
			S916.4,95.1,924.2,95.1 M924.2,92.2c-9.5,0-17.1,7.7-17.1,17.1s7.7,17.1,17.1,17.1c9.5,0,17.1-7.7,17.1-17.1
			S933.7,92.2,924.2,92.2L924.2,92.2z"/>
	</g>
	<g>
		<circle fill="#BA3E3E" cx="861.6" cy="200.6" r="10.7"/>
		<path fill="#BA3E3E" d="M861.6,186.4c7.8,0,14.2,6.4,14.2,14.2s-6.4,14.2-14.2,14.2s-14.2-6.4-14.2-14.2S853.8,186.4,861.6,186.4
			 M861.6,183.4c-9.5,0-17.1,7.7-17.1,17.1s7.7,17.1,17.1,17.1s17.1-7.7,17.1-17.1S871,183.4,861.6,183.4L861.6,183.4z"/>
	</g>
	<g>
		<circle fill="#BA3E3E" cx="727" cy="559.5" r="10.7"/>
		<path fill="#BA3E3E" d="M727,545.3c7.8,0,14.2,6.4,14.2,14.2c0,7.8-6.4,14.2-14.2,14.2s-14.2-6.4-14.2-14.2
			C712.9,551.6,719.2,545.3,727,545.3 M727,542.3c-9.5,0-17.1,7.7-17.1,17.1c0,9.5,7.7,17.1,17.1,17.1s17.1-7.7,17.1-17.1
			C744.2,550,736.5,542.3,727,542.3L727,542.3z"/>
	</g>
	<g>
		<circle fill="#BA3E3E" cx="1002.8" cy="109.3" r="10.7"/>
		<path fill="#BA3E3E" d="M1002.8,95.1c7.8,0,14.2,6.4,14.2,14.2s-6.4,14.2-14.2,14.2s-14.2-6.4-14.2-14.2S995,95.1,1002.8,95.1
			 M1002.8,92.2c-9.5,0-17.1,7.7-17.1,17.1s7.7,17.1,17.1,17.1s17.1-7.7,17.1-17.1S1012.2,92.2,1002.8,92.2L1002.8,92.2z"/>
	</g>
	<g>
		<circle fill="#BA3E3E" cx="1017.2" cy="271" r="10.7"/>
		<path fill="#BA3E3E" d="M1017.2,256.8c7.8,0,14.2,6.4,14.2,14.2s-6.4,14.2-14.2,14.2s-14.2-6.4-14.2-14.2
			S1009.4,256.8,1017.2,256.8 M1017.2,253.9c-9.5,0-17.1,7.7-17.1,17.1c0,9.5,7.7,17.1,17.1,17.1c9.5,0,17.1-7.7,17.1-17.1
			C1034.3,261.6,1026.7,253.9,1017.2,253.9L1017.2,253.9z"/>
	</g>
	<g>
		<circle fill="#BA3E3E" cx="1200" cy="559.5" r="10.7"/>
		<path fill="#BA3E3E" d="M1200,545.3c7.8,0,14.2,6.4,14.2,14.2c0,7.8-6.4,14.2-14.2,14.2s-14.2-6.4-14.2-14.2
			C1185.8,551.6,1192.2,545.3,1200,545.3 M1200,542.3c-9.5,0-17.1,7.7-17.1,17.1c0,9.5,7.7,17.1,17.1,17.1s17.1-7.7,17.1-17.1
			C1217.1,550,1209.4,542.3,1200,542.3L1200,542.3z"/>
	</g>
	<circle opacity="0.35" fill="#BA3E3E" cx="963.5" cy="440.7" r="27"/>
	<circle fill="#BA3E3E" cx="963.5" cy="440.7" r="10.7"/>
	<path fill="#BA3E3E" d="M963.5,426.5c7.8,0,14.2,6.4,14.2,14.2s-6.4,14.2-14.2,14.2s-14.2-6.4-14.2-14.2S955.7,426.5,963.5,426.5
		 M963.5,423.6c-9.5,0-17.1,7.7-17.1,17.1s7.7,17.1,17.1,17.1c9.5,0,17.1-7.7,17.1-17.1S973,423.6,963.5,423.6L963.5,423.6z"/>
	<g>
		<circle opacity="0.35" fill="#BA3E3E" cx="372.7" cy="531.2" r="27"/>
		<circle fill="#BA3E3E" cx="372.7" cy="531.2" r="10.7"/>
		<path fill="#BA3E3E" d="M372.7,517c7.8,0,14.2,6.4,14.2,14.2c0,7.8-6.4,14.2-14.2,14.2s-14.2-6.4-14.2-14.2
			C358.6,523.4,364.9,517,372.7,517 M372.7,514.1c-9.5,0-17.1,7.7-17.1,17.1c0,9.5,7.7,17.1,17.1,17.1s17.1-7.7,17.1-17.1
			C389.8,521.8,382.2,514.1,372.7,514.1L372.7,514.1z"/>
	</g>
	<g>
		<circle opacity="0.35" fill="#BA3E3E" cx="372.7" cy="636.3" r="27"/>
		<circle fill="#BA3E3E" cx="372.7" cy="636.3" r="10.7"/>
		<path fill="#BA3E3E" d="M372.7,622.1c7.8,0,14.2,6.4,14.2,14.2s-6.4,14.2-14.2,14.2s-14.2-6.4-14.2-14.2S364.9,622.1,372.7,622.1
			 M372.7,619.2c-9.5,0-17.1,7.7-17.1,17.1s7.7,17.1,17.1,17.1s17.1-7.7,17.1-17.1S382.2,619.2,372.7,619.2L372.7,619.2z"/>
	</g>
	<g>
		<circle opacity="0.35" fill="#BA3E3E" cx="307.7" cy="789.1" r="27"/>
		<circle fill="#BA3E3E" cx="307.7" cy="789.1" r="10.7"/>
		<path fill="#BA3E3E" d="M307.7,774.9c7.8,0,14.2,6.4,14.2,14.2c0,7.8-6.4,14.2-14.2,14.2c-7.8,0-14.2-6.4-14.2-14.2
			C293.5,781.3,299.9,774.9,307.7,774.9 M307.7,772c-9.5,0-17.1,7.7-17.1,17.1s7.7,17.1,17.1,17.1c9.5,0,17.1-7.7,17.1-17.1
			S317.1,772,307.7,772L307.7,772z"/>
	</g>
	<g>
		<circle opacity="0.35" fill="#BA3E3E" cx="372.7" cy="120" r="27"/>
		<circle fill="#BA3E3E" cx="372.7" cy="120" r="10.7"/>
		<path fill="#BA3E3E" d="M372.7,105.8c7.8,0,14.2,6.4,14.2,14.2c0,7.8-6.4,14.2-14.2,14.2s-14.2-6.4-14.2-14.2
			C358.6,112.2,364.9,105.8,372.7,105.8 M372.7,102.9c-9.5,0-17.1,7.7-17.1,17.1c0,9.5,7.7,17.1,17.1,17.1s17.1-7.7,17.1-17.1
			C389.8,110.6,382.2,102.9,372.7,102.9L372.7,102.9z"/>
	</g>
	<g>
		<circle fill="#BA3E3E" cx="963.5" cy="531.2" r="10.7"/>
		<path fill="#BA3E3E" d="M963.5,517c7.8,0,14.2,6.4,14.2,14.2c0,7.8-6.4,14.2-14.2,14.2s-14.2-6.4-14.2-14.2
			C949.3,523.4,955.7,517,963.5,517 M963.5,514.1c-9.5,0-17.1,7.7-17.1,17.1c0,9.5,7.7,17.1,17.1,17.1c9.5,0,17.1-7.7,17.1-17.1
			C980.6,521.8,973,514.1,963.5,514.1L963.5,514.1z"/>
	</g>
	<g>
		<g>
			<path fill="#F3CAAE" d="M944.7,1193.1c-2.2-0.4-4.2-1.6-5.7-3.2c-0.6-0.6-1.2-1.4-1.6-2.2c0,0-0.6,0.8-1.6,1.7
				c-1.5,1.5-4,3.3-6.8,3.3c-1.4,0-2.8-0.5-4.3-1.6c-0.5-0.4-0.9-0.8-1.4-1.4c0,0-0.5,0.3-1.3,0.6c-2.7,1.2-9,3.5-12.2,0.4
				c-0.7-0.6-1.2-1.5-1.6-2.6c0,0-0.5,0.2-1.3,0.4c-3.2,1-11.6,3.1-14.7-0.5c-0.7-0.8-1.1-2-1.1-3.5c0,0-0.6,0.2-1.5,0.3
				c-3.7,0.6-12.6,1.2-10.9-9.2c2.1-13,10.4,2.1,13-33.8c1.5-20,1.4-40.4,1.2-54.7c-0.2-11.3-3-22.4-8-32.6
				c-11.1-22.2-30.5-66.6-29-102.5c2-47.7,9.7-54.1,10.8-82.7v0c0.1-1.3,0.1-2.7,0.1-4.1c0.5-32.2-10-110.2-23.2-122.7H946
				l-3.5,81.7c-0.4,9.3-1.7,18.4-4,27.4c-1.3,5.3-2.8,12.1-4,19.9c-1.8,11.8-2.8,25.9-1.5,40.4c0.4,4.3,1,8.6,1.9,13
				c8.3,41.6-10,134.8,8.2,208.1C958.3,1194.8,952.7,1194.7,944.7,1193.1z"/>
			<path opacity="0.61" fill="#DBAB8A" d="M876.5,830.1c3.3,6,6.6,11.6,10.5,16.4c3.9,4.8,8.5,8.5,13.7,9.9c2.6,0.8,5.3,0.8,8.3,0.7
				c2.8-0.3,5.5-0.8,7.9-2.1c4.8-2.4,8.3-8,10-14.6c1,3.3,0.8,7-0.1,10.5c-1,3.5-3.1,7-6.3,9.5c-3.1,2.5-6.9,3.8-10.7,4.5
				c-0.9,0.1-1.9,0.2-2.8,0.3c-0.9,0.1-1.9,0.2-2.9,0.1c-2,0-3.9-0.4-5.8-0.9c-3.8-1.1-7.3-3.1-10.1-5.7c-2.8-2.5-5-5.5-6.7-8.7
				C878.2,843.8,876.5,836.9,876.5,830.1z"/>
			<path opacity="0.61" fill="#DBAB8A" d="M933,912.1c-3-1-7.7-8.9-13.4,0c-2.8,4.3-6.5,9.4-9.6,13.4c-2.8,3.7-8.4,3.3-10.8-0.7
				l-32.7-55.3c0.9,1.1,29.3,35.9,35.2,37.5c6,1.6,32.8-35.3,32.8-35.3C932.7,883.5,931.7,897.6,933,912.1z"/>
			<path fill="#BC8A68" d="M938.9,1189.9c-0.6-0.6-1.2-1.4-1.6-2.2c0,0-0.6,0.8-1.6,1.7l1.6-15.7L938.9,1189.9z"/>
			<path fill="#BC8A68" d="M924.7,1191.2c-0.5-0.4-0.9-0.8-1.4-1.4c0,0-0.5,0.3-1.3,0.6l1.3-13L924.7,1191.2z"/>
			<path fill="#BC8A68" d="M909.8,1190.9c-0.7-0.6-1.2-1.5-1.6-2.6c0,0-0.5,0.2-1.3,0.4l1.3-11.2L909.8,1190.9z"/>
			<path fill="#BC8A68" d="M893.7,1180.2c-0.2,1.6-0.5,3.2-0.8,4.8c-0.2,1.1-0.4,2.1-0.7,3.2c-0.7-0.8-1.1-2-1.1-3.5
				c0,0-0.6,0.2-1.5,0.3c0.1-0.3,0.3-0.6,0.4-0.9c0.6-1.4,1.2-2.8,1.7-4.3c1.1-2.9,1.9-5.9,2.3-9.1
				C894.3,1173.8,894.1,1177,893.7,1180.2z"/>
			<path fill="#F3CAAE" d="M982.4,1193.1c2.2-0.4,4.2-1.6,5.7-3.2c0.6-0.6,1.2-1.4,1.6-2.2c0,0,0.6,0.8,1.6,1.7
				c1.5,1.5,4,3.3,6.8,3.3c1.4,0,2.8-0.5,4.3-1.6c0.5-0.4,0.9-0.8,1.4-1.4c0,0,0.5,0.3,1.3,0.6c2.7,1.2,9,3.5,12.2,0.4
				c0.7-0.6,1.2-1.5,1.6-2.6c0,0,0.5,0.2,1.3,0.4c3.2,1,11.6,3.1,14.7-0.5c0.7-0.8,1.1-2,1.1-3.5c0,0,0.6,0.2,1.5,0.3
				c3.7,0.6,12.6,1.2,10.9-9.2c-2.1-13-10.4,2.1-13-33.8c-1.5-20-1.4-40.4-1.2-54.7c0.2-11.3,3-22.4,8-32.6
				c11.1-22.2,30.5-66.6,29-102.5c-2-47.7-9.7-54.1-10.8-82.7v0c-0.1-1.3-0.1-2.7-0.1-4.1c-0.5-32.2,10-110.2,23.2-122.7H981
				l3.5,81.7c0.4,9.3,1.7,18.4,4,27.4c1.3,5.3,2.8,12.1,4,19.9c1.8,11.8,2.8,25.9,1.5,40.4c-0.4,4.3-1,8.6-1.9,13
				c-8.3,41.6,10,134.8-8.2,208.1C968.7,1194.8,974.3,1194.7,982.4,1193.1z"/>
			<path opacity="0.61" fill="#DBAB8A" d="M1050.5,830.1c-3.3,6-6.6,11.6-10.5,16.4c-3.9,4.8-8.5,8.5-13.7,9.9
				c-2.6,0.8-5.3,0.8-8.3,0.7c-2.8-0.3-5.5-0.8-7.9-2.1c-4.8-2.4-8.3-8-10-14.6c-1,3.3-0.8,7,0.1,10.5c1,3.5,3.1,7,6.3,9.5
				c3.1,2.5,6.9,3.8,10.7,4.5c0.9,0.1,1.9,0.2,2.8,0.3c0.9,0.1,1.9,0.2,2.9,0.1c2,0,3.9-0.4,5.8-0.9c3.8-1.1,7.3-3.1,10.1-5.7
				c2.8-2.5,5-5.5,6.7-8.7C1048.8,843.8,1050.6,836.9,1050.5,830.1z"/>
			<path opacity="0.61" fill="#DBAB8A" d="M994,912.1c3-1,7.7-8.9,13.4,0c2.8,4.3,6.5,9.4,9.6,13.4c2.8,3.7,8.4,3.3,10.8-0.7
				l32.7-55.3c-0.9,1.1-29.3,35.9-35.2,37.5c-6,1.6-32.8-35.3-32.8-35.3C994.3,883.5,995.3,897.6,994,912.1z"/>
			<path fill="#BC8A68" d="M988.1,1189.9c0.6-0.6,1.2-1.4,1.6-2.2c0,0,0.6,0.8,1.6,1.7l-1.6-15.7L988.1,1189.9z"/>
			<path fill="#BC8A68" d="M1002.3,1191.2c0.5-0.4,0.9-0.8,1.4-1.4c0,0,0.5,0.3,1.3,0.6l-1.3-13L1002.3,1191.2z"/>
			<path fill="#BC8A68" d="M1017.2,1190.9c0.7-0.6,1.2-1.5,1.6-2.6c0,0,0.5,0.2,1.3,0.4l-1.3-11.2L1017.2,1190.9z"/>
			<path fill="#BC8A68" d="M1033.3,1180.2c0.2,1.6,0.5,3.2,0.8,4.8c0.2,1.1,0.4,2.1,0.7,3.2c0.7-0.8,1.1-2,1.1-3.5
				c0,0,0.6,0.2,1.5,0.3c-0.1-0.3-0.3-0.6-0.4-0.9c-0.6-1.4-1.2-2.8-1.7-4.3c-1.1-2.9-1.9-5.9-2.3-9.1
				C1032.8,1173.8,1032.9,1177,1033.3,1180.2z"/>
		</g>
		<g>
			<g>
				<circle fill="#BA3E3E" cx="885.4" cy="925.6" r="10.7"/>
				<path fill="#BA3E3E" d="M885.4,911.4c7.8,0,14.2,6.4,14.2,14.2s-6.4,14.2-14.2,14.2c-7.8,0-14.2-6.4-14.2-14.2
					S877.6,911.4,885.4,911.4 M885.4,908.5c-9.5,0-17.1,7.7-17.1,17.1s7.7,17.1,17.1,17.1c9.5,0,17.1-7.7,17.1-17.1
					S894.9,908.5,885.4,908.5L885.4,908.5z"/>
			</g>
			<g>
				<circle fill="#BA3E3E" cx="934.7" cy="1102.2" r="10.7"/>
				<path fill="#BA3E3E" d="M934.7,1088c7.8,0,14.2,6.4,14.2,14.2c0,7.8-6.4,14.2-14.2,14.2s-14.2-6.4-14.2-14.2
					C920.6,1094.4,926.9,1088,934.7,1088 M934.7,1085.1c-9.5,0-17.1,7.7-17.1,17.1s7.7,17.1,17.1,17.1s17.1-7.7,17.1-17.1
					S944.2,1085.1,934.7,1085.1L934.7,1085.1z"/>
			</g>
			<g>
				<circle fill="#BA3E3E" cx="1041.6" cy="925.6" r="10.7"/>
				<path fill="#BA3E3E" d="M1041.6,911.4c7.8,0,14.2,6.4,14.2,14.2s-6.4,14.2-14.2,14.2s-14.2-6.4-14.2-14.2
					S1033.8,911.4,1041.6,911.4 M1041.6,908.5c-9.5,0-17.1,7.7-17.1,17.1s7.7,17.1,17.1,17.1s17.1-7.7,17.1-17.1
					S1051,908.5,1041.6,908.5L1041.6,908.5z"/>
			</g>
			<g>
				<circle fill="#BA3E3E" cx="992.3" cy="1102.2" r="10.7"/>
				<path fill="#BA3E3E" d="M992.3,1088c7.8,0,14.2,6.4,14.2,14.2c0,7.8-6.4,14.2-14.2,14.2s-14.2-6.4-14.2-14.2
					C978.1,1094.4,984.5,1088,992.3,1088 M992.3,1085.1c-9.5,0-17.1,7.7-17.1,17.1s7.7,17.1,17.1,17.1c9.5,0,17.1-7.7,17.1-17.1
					S1001.7,1085.1,992.3,1085.1L992.3,1085.1z"/>
			</g>
		</g>
	</g>
	<g>
		<g>
			<circle fill="#BA3E3E" cx="372.7" cy="245.7" r="9.1"/>
			<path fill="#BA3E3E" d="M372.7,233.6c6.7,0,12.1,5.4,12.1,12.1c0,6.7-5.4,12.1-12.1,12.1c-6.7,0-12.1-5.4-12.1-12.1
				C360.6,239.1,366.1,233.6,372.7,233.6 M372.7,230.7c-8.3,0-15,6.7-15,15s6.7,15,15,15c8.3,0,15-6.7,15-15S381,230.7,372.7,230.7
				L372.7,230.7z"/>
		</g>
	</g>
	<g>
		<g>
			<circle fill="#BA3E3E" cx="453.4" cy="898.8" r="9.1"/>
			<path fill="#BA3E3E" d="M453.4,886.7c6.7,0,12.1,5.4,12.1,12.1s-5.4,12.1-12.1,12.1c-6.7,0-12.1-5.4-12.1-12.1
				S446.7,886.7,453.4,886.7 M453.4,883.8c-8.3,0-15,6.7-15,15s6.7,15,15,15c8.3,0,15-6.7,15-15S461.7,883.8,453.4,883.8
				L453.4,883.8z"/>
		</g>
	</g>
	<g>
		<g>
			<circle fill="#BA3E3E" cx="307.7" cy="1140.2" r="9.1"/>
			<path fill="#BA3E3E" d="M307.7,1128.1c6.7,0,12.1,5.4,12.1,12.1c0,6.7-5.4,12.1-12.1,12.1s-12.1-5.4-12.1-12.1
				C295.6,1133.5,301,1128.1,307.7,1128.1 M307.7,1125.2c-8.3,0-15,6.7-15,15c0,8.3,6.7,15,15,15c8.3,0,15-6.7,15-15
				C322.7,1131.9,316,1125.2,307.7,1125.2L307.7,1125.2z"/>
		</g>
	</g>
	<g>
		<g>
			<circle fill="#BA3E3E" cx="372.7" cy="386" r="9.1"/>
			<path fill="#BA3E3E" d="M372.7,373.9c6.7,0,12.1,5.4,12.1,12.1c0,6.7-5.4,12.1-12.1,12.1c-6.7,0-12.1-5.4-12.1-12.1
				C360.6,379.3,366.1,373.9,372.7,373.9 M372.7,370.9c-8.3,0-15,6.7-15,15c0,8.3,6.7,15,15,15c8.3,0,15-6.7,15-15
				C387.8,377.7,381,370.9,372.7,370.9L372.7,370.9z"/>
		</g>
	</g>
	<g>
		<g>
			<circle fill="#BA3E3E" cx="191.4" cy="594.6" r="9.1"/>
			<path fill="#BA3E3E" d="M191.4,582.5c6.7,0,12.1,5.4,12.1,12.1s-5.4,12.1-12.1,12.1c-6.7,0-12.1-5.4-12.1-12.1
				S184.7,582.5,191.4,582.5 M191.4,579.6c-8.3,0-15,6.7-15,15s6.7,15,15,15c8.3,0,15-6.7,15-15S199.7,579.6,191.4,579.6
				L191.4,579.6z"/>
		</g>
	</g>
	<g>
		<g>
			<circle fill="#BA3E3E" cx="516.2" cy="457.8" r="9.1"/>
			<path fill="#BA3E3E" d="M516.2,445.7c6.7,0,12.1,5.4,12.1,12.1c0,6.7-5.4,12.1-12.1,12.1s-12.1-5.4-12.1-12.1
				C504.2,451.1,509.6,445.7,516.2,445.7 M516.2,442.8c-8.3,0-15,6.7-15,15c0,8.3,6.7,15,15,15s15-6.7,15-15
				C531.3,449.5,524.5,442.8,516.2,442.8L516.2,442.8z"/>
		</g>
	</g>
	<g>
		<g>
			<circle fill="#BA3E3E" cx="256.8" cy="317.4" r="9.1"/>
			<path fill="#BA3E3E" d="M256.8,305.3c6.7,0,12.1,5.4,12.1,12.1c0,6.7-5.4,12.1-12.1,12.1s-12.1-5.4-12.1-12.1
				C244.7,310.7,250.1,305.3,256.8,305.3 M256.8,302.4c-8.3,0-15,6.7-15,15c0,8.3,6.7,15,15,15c8.3,0,15-6.7,15-15
				C271.8,309.1,265.1,302.4,256.8,302.4L256.8,302.4z"/>
		</g>
	</g>
	<line fill="none" stroke="#BA3E3E" stroke-width="3" stroke-miterlimit="10" x1="372.7" y1="120" x2="501.2" y2="120"/>
	<polyline fill="none" stroke="#BA3E3E" stroke-width="3" stroke-miterlimit="10" points="372.7,531.2 635.4,531.2 635.4,778.4 	"/>
	<g>
		<path fill="#BA3E3E" d="M1261.6,324.8c-29.7,0-53.8-24.1-53.8-53.8c0-29.7,24.1-53.8,53.8-53.8c29.7,0,53.8,24.1,53.8,53.8
			C1315.4,300.7,1291.3,324.8,1261.6,324.8z"/>
	</g>
	<g>
		<g>
			<path fill="#FFFFFF" d="M549,136.6c-1.8,0.4-3.4,0.7-5,0.7c-0.6,0-1.2-0.1-1.8-0.2c0.9,2.7,4.6,7,14.4,8.7c0-0.1,0-0.3,0-0.4
				c0-0.2,0-0.5,0-0.7c0-0.6,0-1.1,0.1-1.7l0-0.8c0.1-0.9,0.1-1.7,0.2-2.5l0.1-0.8c0.1-0.5,0.1-1.1,0.2-1.6c0.1-0.6,0.2-1.2,0.3-1.8
				c-0.2,0-0.3,0-0.5,0C553.9,135.7,551.3,136.2,549,136.6z"/>
		</g>
		<g>
			<path fill="#FFFFFF" d="M562.1,136.1c-0.8-0.2-1.7-0.3-2.5-0.4c-0.1,0.6-0.2,1.3-0.3,2c-0.1,0.7-0.2,1.5-0.3,2.3
				c-0.1,0.8-0.1,1.6-0.2,2.3c0,0.8-0.1,1.6-0.1,2.4c0,0.8,0,1.5,0,2.3c0,0.7,0,1.5,0.1,2.1c0.1,0.7,0.1,1.3,0.2,1.9
				c0.1,0.6,0.2,1.1,0.2,1.6c0.1,0.5,0.2,0.9,0.2,1.2c0.2,0.7,0.2,1.1,0.2,1.1c0.2,0.9,4.2,1,4.3-0.2l0-0.2c0,0,0-0.3,0.1-0.9
				c0-0.3,0.1-0.6,0.1-1c0.1-0.4,0.2-0.9,0.3-1.4c0.1-0.5,0.3-1,0.4-1.6c0.1-0.6,0.3-1.2,0.5-1.8c0.2-0.6,0.4-1.2,0.6-1.9
				c0.2-0.6,0.5-1.3,0.7-1.9c0.3-0.6,0.5-1.3,0.8-1.9c0.3-0.6,0.6-1.2,0.9-1.8c0.5-1,1-1.9,1.4-2.7c-1.6-0.3-3.1-0.6-4.5-0.9
				C564.3,136.6,563.2,136.3,562.1,136.1z"/>
		</g>
		<g>
			<path fill="#FFFFFF" d="M549,93.8c0.5-0.4,1-0.7,1.5-1.1C550,93.1,549.5,93.4,549,93.8z"/>
		</g>
		<g>
			<path fill="#FFFFFF" d="M548.7,94.1c0.1-0.1,0.2-0.2,0.4-0.3C548.9,93.9,548.8,94,548.7,94.1z"/>
		</g>
		<g>
			<path fill="#FFFFFF" d="M544,102c1.7-0.1,3.2-0.2,4.4-1.4c0.2-0.2,0.4-0.4,0.6-0.6c-0.7-0.3-1.2-0.4-1.5-0.4
				c-0.2,0-0.4,0-0.5-0.1c-0.3-0.2-0.3-0.6-0.1-0.9c0.2-0.2,0.5-0.6,3,0.4c0,0,0.1,0,0.1,0c1.3-1.2,2.7-2.1,4.3-2.9
				c1.3-0.6,2.7-1,4.2-1.1c-0.1,0-0.2,0-0.3-0.1c-0.3-0.2-0.4-0.6-0.2-0.9c0.4-0.7,1.8-2.8,1.4-3.8c0-0.1-0.2-0.4-0.8-0.6
				c-0.8-0.2-1.5,0-2.3,0.2c-0.4,0.1-0.8,0.2-1.2,0.3c-1.3,0.6-2.5,1.3-3.6,2c0.4,1.1,0.8,2.2,0.9,3c0.1,0.4-0.2,0.7-0.5,0.8
				c0,0-0.1,0-0.1,0c-0.3,0-0.6-0.2-0.6-0.5c-0.1-0.5-0.3-1.2-0.5-1.9l-0.2,0.1c-1.5,1.4-3.6,3.4-5.6,4c-1.4,1.5-2.6,3.1-3.5,4.8
				C542.1,102.1,543.1,102,544,102z"/>
		</g>
		<g>
			<path fill="#FFFFFF" d="M550.5,92.7c0.2-0.1,0.3-0.2,0.5-0.3C550.8,92.5,550.7,92.6,550.5,92.7z"/>
		</g>
		<g>
			<path fill="#FFFFFF" d="M547.1,95.3c0.5-0.4,1-0.8,1.5-1.3C548.1,94.5,547.6,94.9,547.1,95.3z"/>
		</g>
		<g>
			<path fill="#FFFFFF" d="M544.7,97.6C544.8,97.6,544.8,97.6,544.7,97.6c0.2-0.2,0.4-0.4,0.6-0.6C545.1,97.2,544.9,97.4,544.7,97.6
				z"/>
		</g>
		<g>
			<path fill="#FFFFFF" d="M545.3,97C545.3,97,545.3,97,545.3,97C545.3,97,545.3,97,545.3,97z"/>
		</g>
		<g>
			<path fill="#FFFFFF" d="M551.5,92.1c-0.2,0.1-0.3,0.2-0.5,0.3C551.2,92.3,551.3,92.2,551.5,92.1
				C551.5,92.1,551.5,92.1,551.5,92.1z"/>
		</g>
		<g>
			<path fill="#FFFFFF" d="M546.9,95.5c0.1-0.1,0.1-0.1,0.2-0.2C547,95.4,547,95.4,546.9,95.5z"/>
		</g>
		<g>
			<path fill="#FFFFFF" d="M545.4,97c0.5-0.5,1-1,1.6-1.5C546.4,96,545.8,96.5,545.4,97z"/>
		</g>
		<g>
			<path fill="#FFFFFF" d="M602.8,101c1.1,0.6,2,1.3,2.3,2.2l0.2,0c0.7-0.1,1.4-0.2,2.1-0.2c0.3-0.5,0.4-1,0.5-1.6c0,0,0-0.1,0-0.1
				C605.9,99.9,604.3,99.3,602.8,101z"/>
		</g>
		<g>
			<path fill="#FFFFFF" d="M608.4,106.8c0,0.5-0.1,0.9-0.2,1.4C608.3,107.8,608.4,107.3,608.4,106.8z"/>
		</g>
		<g>
			<path fill="#FFFFFF" d="M608.4,106.8C608.4,106.8,608.4,106.8,608.4,106.8C608.4,106.8,608.4,106.8,608.4,106.8
				C608.4,106.8,608.4,106.8,608.4,106.8z"/>
		</g>
		<g>
			<path fill="#FFFFFF" d="M608.2,102.9c0.1,0.5,0.1,0.9,0.1,1.4c0,0,0,0,0,0C608.4,103.9,608.3,103.4,608.2,102.9z"/>
		</g>
		<g>
			<path fill="#FFFFFF" d="M608.4,104.3c-0.1,0-0.2,0-0.3-0.1c-0.1,0.2-0.3,0.4-0.5,0.5c-0.1,0.1-0.3,0.1-0.4,0.1
				c-0.2,0-0.4-0.1-0.5-0.2c-0.1-0.1-0.1-0.3-0.1-0.4c-0.4,0-0.7,0.1-1.1,0.1l-0.4,0.1c-0.2,0.7-0.9,1.3-1.8,1.7
				c0.3,0.3,0.6,0.6,0.8,0.9c1.8-1.2,3.1-1,4.2-0.4C608.4,106,608.5,105.2,608.4,104.3z"/>
		</g>
		<g>
			<path fill="#FFFFFF" d="M536.3,124.5C536.3,124.5,536.3,124.5,536.3,124.5c0-0.4-0.1-0.8-0.1-1.3
				C536.2,123.7,536.2,124.1,536.3,124.5z"/>
		</g>
		<g>
			<path fill="#FFFFFF" d="M551.2,134.1c-0.3-0.7-1-1.5-1.6-2.1c-0.4-0.4-0.7-0.7-1-1.1c-0.5,0.2-1,0.4-1.7,0.4c-0.1,0-0.2,0-0.3,0
				c-2-0.1-5.4-1.9-6.6-3.5c-0.2-0.3-0.2-0.7,0.1-0.9c0.3-0.2,0.7-0.2,0.9,0.1c1,1.3,4.1,2.9,5.7,3c1.8,0.1,2.3-0.9,3-2.3
				c0.2-0.3,0.3-0.7,0.5-1c-1.9-1.2-3.5-3.1-5.1-5.2c-0.2-0.3-0.2-0.7,0.1-0.9c0.3-0.2,0.7-0.2,0.9,0.1c4,5.3,7,7.5,12.8,5.3
				c-0.1-1.1,0.1-2.5,0.9-4.2c-1.7-1.4-3.1-3.2-4-5.4c-0.1,0.1-0.3,0.2-0.4,0.4c-1.7,1.6-3.9,3.9-6.4,3.9c-0.2,0-0.4,0-0.6,0
				c-2.1-0.3-3.5-2.2-4.6-4c-1.2,3.4-0.6,5.1,0.4,7.9c0.3,0.7,0.5,1.5,0.8,2.3c0.1,0.3-0.1,0.7-0.4,0.8c-0.1,0-0.1,0-0.2,0
				c-0.3,0-0.5-0.2-0.6-0.5c-0.3-0.8-0.5-1.6-0.8-2.3c-1.1-3.1-1.9-5.3,0-9.8v0l-0.4-0.7c-0.2-0.3,0-0.7,0.3-0.9
				c0.3-0.2,0.7,0,0.9,0.3l0.4,0.7c1,1.9,2.3,4.6,4.4,4.9c2.1,0.3,4.3-1.9,5.9-3.4c0.2-0.2,0.5-0.5,0.7-0.7c0.1,0,0.1-0.1,0.2-0.1
				c-0.1-0.3-0.2-0.6-0.3-0.9c-0.7-2.8-1.1-5.7-1.2-8.4c0.1-1.2-0.2-2.2-1-3.1c-0.7-0.8-1.7-1.5-2.6-1.9c-0.3,0.3-0.6,0.6-0.9,0.9
				c-1.6,1.5-3.5,1.6-5.3,1.8c-1.4,0.1-2.7,0.2-3.7,1c-0.1,0.2-0.2,0.5-0.3,0.7c-0.3,0.9-0.7,1.8-1,2.6c0,0,0,0,0,0
				c0,1.1-0.1,2.4-0.8,3.7c-0.1,0.2-0.3,0.3-0.5,0.3c-0.8,2.7-1.3,5.3-1.5,7.6c0.3-0.1,0.7-0.2,1.1-0.5c0.3-0.2,0.7-0.1,0.9,0.2
				c0.2,0.3,0.1,0.7-0.2,0.9c-0.7,0.5-1.3,0.7-1.9,0.8c-0.1,0.9-0.1,1.8,0,2.6c0.2,0,0.3,0,0.5,0c0.8,0.1,1.5,0.5,2.2,1.4
				c0.2,0.3,0.2,0.7-0.1,0.9c-0.3,0.2-0.7,0.2-0.9-0.1c-0.5-0.6-0.9-0.9-1.3-0.9c-0.1,0-0.2,0-0.3,0c0.2,1.6,0.5,3.2,1,4.6
				c0.5,0,1,0.1,1.5,0.3c0.7,0.3,1.2,0.7,1.7,1c0.9,0.6,1.6,1.1,3.1,0.9c0.3,0,0.7,0.2,0.7,0.6c0,0.4-0.2,0.7-0.6,0.7
				c-0.3,0-0.5,0-0.8,0c-1.5,0-2.4-0.6-3.2-1.2c-0.4-0.3-0.9-0.6-1.5-0.9c-0.1-0.1-0.2-0.1-0.3-0.1c0.3,0.7,0.7,1.3,1.1,2
				C541.9,136.6,545.5,135,551.2,134.1z M539.4,113.4c-0.3-2.9,0.8-5.6,2.5-6.1c0.7-0.2,2.6-0.4,4.3,2.9c1.1,2,2.1,2.5,2.7,2.3
				c0.8-0.2,1.4-1.8,1-4.2c0-0.4,0.2-0.7,0.6-0.7c0.4-0.1,0.7,0.2,0.7,0.5c0.4,2.8-0.3,5.1-1.9,5.6c-0.7,0.2-2.5,0.4-4.2-3
				c-0.9-1.6-1.9-2.5-2.7-2.2c-1,0.3-1.9,2.2-1.6,4.7c0,0.4-0.2,0.7-0.6,0.7c0,0,0,0-0.1,0C539.7,114,539.4,113.7,539.4,113.4z"/>
		</g>
		<g>
			<path fill="#FFFFFF" d="M537.9,130.5C537.9,130.5,538,130.5,537.9,130.5c-0.2-0.5-0.4-0.9-0.6-1.4
				C537.5,129.6,537.7,130.1,537.9,130.5z"/>
		</g>
		<g>
			<path fill="#FFFFFF" d="M571.8,135.9c-0.5-0.1-0.9-0.1-1.4-0.2c0,0,0,0,0,0C570.9,135.8,571.3,135.8,571.8,135.9z"/>
		</g>
		<g>
			<path fill="#FFFFFF" d="M557.1,89.2c0.6-0.3,1.2-0.5,1.9-0.8c0,0,0,0-0.1,0C558.3,88.6,557.7,88.9,557.1,89.2z"/>
		</g>
		<g>
			<path fill="#FFFFFF" d="M580.9,135.2c-0.3,0.1-0.7,0.2-1,0.3l0,0C580.2,135.4,580.5,135.3,580.9,135.2z"/>
		</g>
		<g>
			<path fill="#FFFFFF" d="M603.1,118.1L603.1,118.1C603.1,118.1,603.1,118.1,603.1,118.1C603.1,118.1,603.1,118.1,603.1,118.1z"/>
		</g>
		<g>
			<path fill="#FFFFFF" d="M570.3,85.2C570.3,85.2,570.3,85.2,570.3,85.2c0.3,0,0.6-0.1,0.9-0.1C570.9,85.1,570.6,85.1,570.3,85.2z"
				/>
		</g>
		<g>
			<path fill="#FFFFFF" d="M596.3,115c-0.9-0.5-1.8-0.9-2.5-1.4c-0.4-0.3-0.9-0.5-1.3-0.8c-0.6-0.3-1.1-0.7-1.7-1
				c0.2,0.7,0.3,1.4,0.5,2.2c0.6,3.1,1.5,7.3,3.3,7.9c0,0,0,0,0,0c2.2-2,5.2-1.9,8.5-3.9c-0.4,0.2-0.8,0.4-1.1,0.6
				C600.5,117.2,598.3,116.1,596.3,115z"/>
		</g>
		<g>
			<path fill="#FFFFFF" d="M604.8,108.2c1,2.1,0.7,4.5-1,7.1c-0.1,0.2-0.3,0.3-0.5,0.3c-0.1,0-0.3,0-0.4-0.1
				c-0.3-0.2-0.4-0.6-0.2-0.9c2-3.1,1.8-5.7-0.7-7.8c0,0,0,0-0.1-0.1c-1.2,0.4-2.5,0.7-3.9,1c-0.4,0.1-0.8,0.2-1,0.2
				c-0.1,0-0.1,0-0.2,0c-0.3,0-0.6-0.2-0.6-0.5c-0.1-0.3,0.1-0.7,0.5-0.8c0.3-0.1,0.6-0.1,1.1-0.2c1.6-0.3,5.9-1.2,6.1-2.5
				c0.2-1.2-3.5-2.7-4.9-3.2c-0.4-0.1-0.7-0.3-0.9-0.4c-0.3-0.1-0.4-0.4-0.4-0.6c0-0.3,0.2-0.5,0.5-0.6c1-0.3,1.8-1,2-1.7
				c0.2-0.5,0-1.1-0.4-1.6c-0.2-0.3-0.2-0.7,0-0.9c0.3-0.2,0.7-0.2,0.9,0c0.8,0.8,1,1.8,0.7,2.8c-0.2,0.7-0.7,1.4-1.4,1.9
				c0.5,0.2,1,0.4,1.5,0.6c1.9-2.3,4-1.9,5.8-0.9c-0.8-2.3-2.1-4.7-4.1-7.3c-3.6-4.6-10.8-7.2-19.1-7.7c0.5,1.5,1.2,1.5,2.4,1.6
				c1.2,0,2.7,0.1,3.8,1.9c0.2,0.3,0.1,0.7-0.2,0.9c-0.1,0.1-0.2,0.1-0.3,0.1c-0.2,0-0.4-0.1-0.6-0.3c-0.8-1.2-1.7-1.2-2.8-1.3
				c-0.2,0-0.5,0-0.7,0c0,0,0,0,0,0.1c0,0.1,0.1,0.4,0.2,0.6c0.1,0.3,0.3,0.7,0.3,1.1c0.8,0,1.6,0.2,2.5,0.5
				c0.4,0.2,0.8,0.4,1.2,0.6c0.8,0.5,1.4,0.8,2.5,0.8c0.1,0,0.2,0,0.2,0c0,0,0.1-0.1,0.1-0.1c0.1-0.1,0.2-0.1,0.4-0.1
				c0.2-0.1,0.5-0.1,0.7,0.1l0.2,0.2c0,0,0,0,0,0c0.2,0.1,0.3,0.2,0.4,0.3c2.1,1.8,2.9,2.1,3.2,2c0.1,0,0.2-0.2,0.2-0.5
				c0.3-2-4-4.3-5.4-5l0.2-0.6l0.4-0.5c2,1,6.6,3.4,6.1,6.4c-0.2,1-0.7,1.3-1,1.5c-0.2,0.1-0.4,0.1-0.5,0.1c-1.2,0-2.7-1.2-4.2-2.5
				c0,0,0,0,0,0c-0.3,0.2-0.8,0.2-0.9,0.2c-1.4,0-2.2-0.5-3.1-0.9c-0.3-0.2-0.7-0.4-1.1-0.5c-2.1-0.9-3.9-0.3-6,0.5
				c-0.7,0.2-1.3,0.5-2,0.7c-0.3,0.1-0.7-0.1-0.8-0.4c-0.1-0.3,0.1-0.7,0.4-0.8c0.7-0.2,1.3-0.4,1.9-0.7c1-0.4,2.1-0.7,3.1-0.9
				c0-0.1-0.1-0.4-0.2-0.7c-0.2-0.4-0.4-1-0.2-1.5c-0.7-0.3-1.3-1-1.6-2.2c0-0.1,0-0.3,0-0.4c-3.8-0.2-7.8,0.1-11.7,0.7
				c0.1,0,0.3,0,0.4-0.1c0.4,0.6,0.9,1.1,1.5,1.4c1.7,0.8,4.3,0.3,6.8-1.2c0.3-0.2,0.7-0.1,0.9,0.2c0.2,0.3,0.1,0.7-0.2,0.9
				c-1.5,0.9-3.5,1.7-5.4,1.7c0.5,1.5,1.5,2.5,2.6,3.7c0.6,0.6,1.3,1.3,1.8,2.1c0.2,0.3,0.2,0.7-0.1,0.9c-0.1,0.1-0.3,0.1-0.4,0.1
				c-0.2,0-0.4-0.1-0.5-0.3c-0.5-0.7-1.2-1.4-1.7-2c-1.2-1.3-2.5-2.6-3-4.7c-0.4-0.1-0.8-0.2-1.1-0.4c-0.8-0.4-1.7-1-2.3-2.4
				c-2,0.3-3.9,0.8-5.8,1.3c0.7,0.7,1.3,1.5,1.9,2.3c1.1,1.4,2.2,2.8,3.7,3.7c0.4,0.2,0.8,0.5,1.1,0.7c2.1,1.3,3.8,2.4,4.2,4.1
				c1.6-1.4,3.3-2.3,4.9-2.2c1.4,0,2.6,0.8,3.6,2.1c0.2,0.3,0.1,0.7-0.2,0.9c-0.3,0.2-0.7,0.1-0.9-0.2c-0.7-1-1.6-1.5-2.5-1.5
				c-1.5-0.1-3.4,1-4.9,2.9c-0.2,0.7-0.5,1.5-0.9,2.4c5.5,2,7.3,5.6,7.9,9.8c1.1-0.6,1.5-2.1,1.9-3.6c0.3-1.3,0.7-2.6,1.5-3.5
				c0.2-0.3,0.6-0.3,0.9-0.1c0.3,0.2,0.3,0.6,0.1,0.9c-0.6,0.7-0.9,1.8-1.2,3c-0.5,1.8-1,3.9-3,4.7c0.1,1.8,0.1,3.8,0.1,5.7
				c0,0.4-0.3,0.6-0.7,0.6c0,0,0,0,0,0c-0.4,0-0.6-0.3-0.6-0.7c0.2-8.2-0.3-13.3-7.9-15.8c-0.2-0.1-0.3-0.2-0.4-0.4
				c-0.1-0.2-0.1-0.4,0-0.6c0.7-1.2,1.1-2.1,1.2-2.8c0-0.1,0-0.1,0-0.2c0.3-1.9-1.1-2.8-3.7-4.4c-0.4-0.2-0.7-0.4-1.1-0.7
				c-1.7-1.1-2.9-2.6-4-4c-0.8-1-1.5-1.9-2.3-2.7c-1.4,0.4-2.8,0.9-4.2,1.5c0,0,0,0,0,0c1.1,0.3,1.5,0.9,1.7,1.4
				c0.5,1.4-0.5,3.3-1.5,5c-0.1,0.1-0.2,0.2-0.4,0.3c3.3-0.1,6.7,1.2,9,3.7c2.1,2.3,2.8,5,2.8,7.8c0.2-0.2,0.5-0.5,0.7-0.7
				c0.9-0.9,1.7-1.7,2.4-1.8c1.3-0.2,2.6,0.9,3.7,1.9c0.4,0.4,0.8,0.7,1.1,0.9c0.3,0.2,0.4,0.6,0.2,0.9c-0.2,0.3-0.6,0.4-0.9,0.2
				c-0.4-0.2-0.8-0.6-1.2-1c-0.8-0.7-2-1.7-2.6-1.6c-0.3,0.1-1.2,0.9-1.7,1.4c-0.6,0.6-1.2,1.2-1.7,1.5c-0.1,1.6-0.4,3.1-0.8,4.6
				c-0.1,0.3-0.3,0.5-0.6,0.5c0,0-0.1,0-0.1,0c-0.4-0.1-0.6-0.4-0.5-0.8c0.3-1.6,0.7-3.2,0.8-4.8c0,0,0,0,0-0.1
				c0.2-3-0.3-5.8-2.4-8.1c-3-3.2-8-4.2-11.8-2.3c-1.3,0.6-2.5,1.4-3.6,2.4c2.8,1.5,4.2,3.7,3.9,6c0.2,2.5,0.6,5.3,1.2,8.1
				c2,8.8,11.1,11.1,19.5,12.5c0.9-0.5,1.7-1,2.6-1.5c0.3-0.2,0.7-0.1,0.9,0.3c0.2,0.3,0.1,0.7-0.3,0.9c-1.4,0.8-2.7,1.5-3.9,2.3
				c-0.4,0.2-0.8,0.5-1.2,0.7c1.6,2.3,1.5,4.6-0.5,6.5c-0.1,0.1-0.3,0.2-0.5,0.2c-0.2,0-0.3-0.1-0.5-0.2c-0.2-0.3-0.2-0.7,0-0.9
				c1.6-1.5,1.6-3.1,0.3-4.9c-2.1,1.2-4.1,2.2-6.4,2.7c-0.1,0-0.1,0-0.2,0c0,0,0,0,0,0c-0.9,0.2-1.8,0.3-2.7,0.3
				c-1.3,0-2.6-0.2-4.1-0.5c-0.5,0.5-1.2,0.9-1.8,1.3c-0.2,0.1-0.3,0.2-0.5,0.3c0,0,0,0,0,0c1.6,0,3.4,0.1,5.4,0.5
				c1.1,0.2,2.1,0.4,3.2,0.7c0,0,0,0,0,0c0.1-0.2,0.2-0.3,0.4-0.4c0.2-0.1,0.4-0.1,0.6,0c0.2,0.1,0.4,0.2,0.7,0.4
				c0.3,0.2,0.6,0.4,0.9,0.5c0.7,0.2,1.4,0.3,2.2,0.4c0.1-0.1,0.2-0.3,0.3-0.6c0.1-0.2,0.2-0.4,0.4-0.4c0.2-0.1,0.4,0,0.6,0.1
				c0.3,0.2,0.7,0.5,1,0.8c0.2,0.2,0.4,0.3,0.5,0.4c2.1,0.2,4.3,0,6.7-0.5l0.3-0.2c1-0.8,1.8-1.3,2.4-1.6c-0.2-0.9-0.6-1.8-1-2.7
				c-0.6-1.3-1.3-2.7-1.3-4.4c0-0.4,0.3-0.6,0.7-0.6c0.4,0,0.6,0.3,0.6,0.7c0,1.3,0.5,2.5,1.1,3.8c0.4,0.8,0.8,1.7,1.1,2.6
				c0.1,0.1,0.2,0.2,0.3,0.3c0.1,0.1,0.1,0.2,0.2,0.3c0,0,0.1,0,0.1,0.1c1.4-0.7,2.9-1.6,4.5-2.8c-0.5-1.1-1.2-2.2-2.2-3.3
				c-0.2-0.3-0.2-0.7,0-0.9c0.3-0.3,0.7-0.2,0.9,0c1.1,1.1,1.8,2.2,2.3,3.3c1.7-1.5,1.6-3.1,2.6-5.2c-0.7-0.7-1.5-1.4-2.3-1.8
				c-1.7-0.9-2.8-0.3-4.2,0.5c-1,0.6-2.2,1.2-3.7,1.2c-2.2-0.1-3.4-2.2-4.4-4.1c-0.6-1.2-1.3-2.3-2-2.8c-1.3-0.9-2.8-0.9-4.3-0.9
				c-0.3,0-0.7,0-1,0v0l0,0c-1.2,0-2.5-0.2-3.7-0.9c-3.1-1.8-4.2-6-5.1-9.3c-0.1-0.5-0.3-1.1-0.4-1.5c-0.1-0.3,0.1-0.7,0.4-0.8
				c0.4-0.1,0.7,0.1,0.8,0.4c0.1,0.5,0.3,1,0.4,1.6c0.9,3.1,1.9,7,4.5,8.5c0.9,0.5,1.8,0.6,2.8,0.7c0.2-0.2,0.4-0.3,0.7-0.5
				c2.1-1.6,4.2-3.2,4-5.5c0-0.4,0.2-0.7,0.6-0.7c0.4,0,0.7,0.2,0.7,0.6c0.2,2.7-1.9,4.6-3.9,6.1c1.4,0,2.9,0.2,4.2,1.2
				c1,0.7,1.7,2,2.4,3.3c1,1.7,1.9,3.4,3.4,3.4c1.1,0.1,2-0.5,3-1c1.5-0.8,3.1-1.7,5.5-0.5c0.9,0.4,1.7,1.1,2.4,1.8c0,0,0,0,0,0
				c0.2-0.3,0.4-0.6,0.6-0.9c-2.1-1.2-2.9-5.1-3.7-8.6c-0.3-1.6-0.7-3.1-1-3.8c0,0,0-0.1,0-0.1c0,0,0-0.1,0-0.1c0,0,0,0,0,0
				c-0.5-4.5,0.9-5.8,3.7-8.4c2.1-2,1.6-4.4,0-7.5c-0.2-0.3,0-0.7,0.3-0.9c0.3-0.2,0.7,0,0.9,0.3c1.5,3.1,2.6,6.3-0.3,9
				c-2.6,2.5-3.6,3.5-3.3,7.1c1,0.7,2,1.3,2.9,1.9c0.4,0.3,0.8,0.5,1.3,0.8c0.7,0.4,1.6,0.9,2.4,1.4c2.2,1.2,4.6,2.5,6.2,4.2
				c0.3-0.2,0.6-0.4,0.9-0.6c0,0,3.3-3.6,4.2-9.2C607.3,107.5,606.4,107.2,604.8,108.2z M566,92.2c-1.1-0.2-1.8-0.1-2.2,0.3
				c-0.2,0.3-0.3,0.7-0.2,1.4c0.1,0.4-0.2,0.7-0.5,0.8c0,0-0.1,0-0.1,0c-0.3,0-0.6-0.2-0.6-0.5c-0.2-1.1-0.1-2,0.5-2.6
				c0.7-0.7,1.8-0.9,3.3-0.7c0.4,0.1,0.6,0.4,0.5,0.7C566.7,92,566.4,92.2,566,92.2z M588.1,103.7c-0.1,0.2-0.3,0.4-0.6,0.4
				c-0.1,0-0.2,0-0.3-0.1c-0.3-0.2-0.5-0.5-0.3-0.9c1.7-3.5,1.8-6.2,0.2-9.9c-0.1-0.3,0-0.7,0.4-0.8c0.3-0.1,0.7,0,0.9,0.3
				C590,96.8,590,99.9,588.1,103.7z"/>
		</g>
		<g>
			<path fill="#FFFFFF" d="M559.1,127.2c-1.6,0.6-3,0.8-4.2,0.8c-1.3,0-2.5-0.3-3.6-0.8c-0.2,0.3-0.3,0.6-0.5,0.9
				c-0.3,0.7-0.7,1.4-1.2,1.9c0.2,0.3,0.5,0.6,0.9,1c0.8,0.8,1.7,1.7,2,2.8c0.8-0.1,1.6-0.2,2.5-0.3l0,0c0.5-0.6,1.2-1,2-1.5
				c0.3-0.2,0.6-0.4,0.9-0.5c-1.6-0.4-3.4-0.8-5.2-1.2c-0.4-0.1-0.6-0.4-0.5-0.8c0.1-0.4,0.4-0.6,0.8-0.5c2.4,0.5,4.7,1.1,6.5,1.5
				c1.2,0.3,2.2,0.5,3.2,0.5c-1.4-0.7-2.5-1.7-3.1-2.9C559.4,128,559.2,127.6,559.1,127.2z"/>
		</g>
		<g>
			<path fill="#FFFFFF" d="M566.3,130.9c2.8-0.6,5.2-2,7.9-3.7c-4-0.7-9.3-1.8-13.4-4.7c-0.9,2-0.9,3.7-0.1,5.2
				C561.6,129.4,563.6,130.6,566.3,130.9z"/>
		</g>
	</g>
	<g>
		<path fill="#BA3E3E" d="M656.2,497.8c-29.7,0-53.8-24.1-53.8-53.8c0-29.7,24.1-53.8,53.8-53.8c29.7,0,53.8,24.1,53.8,53.8
			C709.9,473.7,685.8,497.8,656.2,497.8z"/>
	</g>
	<g>
		<path fill="#BA3E3E" d="M635.4,901.5c-29.7,0-53.8-24.1-53.8-53.8c0-29.7,24.1-53.8,53.8-53.8c29.7,0,53.8,24.1,53.8,53.8
			C689.2,877.4,665.1,901.5,635.4,901.5z"/>
	</g>
	<g>
		<path fill="#BA3E3E" d="M1262.7,494.5c-29.7,0-53.8-24.1-53.8-53.8c0-29.7,24.1-53.8,53.8-53.8c29.7,0,53.8,24.1,53.8,53.8
			C1316.5,470.4,1292.4,494.5,1262.7,494.5z"/>
	</g>
	<g>
		<path fill="#FFFFFF" d="M165.2,283c-0.1-2.6-3.1-5.2-3.6-9c-0.8-6.1-1.4-7.8-4.2-11.3c-7.3-9.4-10-14.6-14.6-15
			c-7.7,0-9.3,7-9.5,14.1c0-0.3,0-0.5,0-0.5l0,0.7c-0.4-0.4-0.7-0.8-1.1-1.3l0.5-13.1h-0.1h-5.6H127l0.5,13.1
			c-0.4,0.4-0.7,0.8-1.1,1.3l0-0.7c0,0,0,0.2,0,0.5c-0.2-7.1-1.9-14.1-9.5-14.1c-4.7,0.4-7.3,5.7-14.6,15c-2.7,3.5-3.4,5.2-4.1,11.3
			c-0.5,3.8-3.5,6.4-3.6,9c-0.6,14.2-2.7,15.3-0.8,27.4c1,6.7,24.8,2.7,30.1-1.8c2.2-1.9,1-10.8,1-17.5c0-6.7,3.3-10,1.8-16.1
			c-0.3-1.4-0.3-3.6-0.3-6.1c0,0,0,0.1,0,0.1l0-0.8c1.1-1.2,2.3-2.4,3.4-3.6c1.2,1.2,2.3,2.4,3.4,3.6l0,0.8c0,0,0-0.1,0-0.1
			c0.1,2.5,0.1,4.7-0.3,6.1c-1.4,6.1,1.8,9.4,1.8,16.1c0,6.7-1.2,15.6,1,17.5c5.3,4.5,29.1,8.5,30.1,1.8
			C167.9,298.3,165.8,297.2,165.2,283z M124.1,271c-0.6,0.7-1.1,1.4-1.6,2.1c-0.5,0.7-1,1.5-1.5,2.2c-0.5,0.8-0.9,1.5-1.3,2.3l0,0.1
			c0.2,0.2,0.5,0.4,0.8,0.6c0.3,0.2,0.7,0.4,1,0.7c0.3,0.3,0.6,0.6,0.8,1c0.4,0.6,0.7,1,1.1,1.1l-0.2,1.1c-0.9-0.1-1.4-0.8-1.8-1.4
			c-0.1,0.7-0.2,1.4-0.4,2.1l-1.1-0.3c0.2-0.7,0.3-1.3,0.4-2c0-0.3,0.1-0.6,0.1-0.9c-0.2-0.1-0.4-0.3-0.6-0.4
			c-0.2-0.1-0.5-0.3-0.7-0.5l0,0.1c-0.2,0.4-0.3,0.8-0.5,1.2c-0.2,0.5-0.4,1.1-0.5,1.7c0.6,0.9,0.9,1.8,0.9,3c0,0.5,0,1-0.1,1.5
			c-0.1,3.1-0.3,5.5,3.5,6.1l-0.2,1.1c-1.1-0.2-2-0.6-2.6-1c0.1,1.2,0.6,2.3,1.1,3.5c0.3,0.8,0.7,1.7,0.9,2.7l-1.1,0.3
			c-0.2-0.9-0.6-1.7-0.9-2.5c-0.6-1.6-1.3-3.3-1.2-5.1c-0.8-1.4-0.7-3.3-0.6-5c0-0.5,0-1,0.1-1.5c0-0.5,0-0.9-0.2-1.2l-0.1,0.4
			c-0.1,0.4-0.1,0.9-0.2,1.3l-0.1,1.3l0,1.3c0,0.9,0.1,1.8,0.2,2.7c0.1,0.8,0.3,1.8,0.5,2.7c0.2,0.9,0.4,1.8,0.6,2.6
			c0.5,1.8,1,3.5,1.6,5.3l-1,0.4c-0.7-1.7-1.4-3.5-2-5.2c-0.3-0.9-0.6-1.8-0.9-2.7c-0.2-0.9-0.5-1.7-0.7-2.7c0-0.2-0.1-0.4-0.1-0.5
			c-1.2,1.2-1.9,2.7-2.6,4.3c-0.2,0.5-0.5,1-0.7,1.4c-0.5,0.9-1.1,1.8-1.7,2.6c-1,1.3-1.9,2.7-2.3,4.1l-1.1-0.2
			c0.4-1.7,1.4-3.1,2.4-4.5c0.6-0.9,1.2-1.7,1.6-2.5c0.1-0.3,0.2-0.5,0.4-0.8c-0.5,0.1-1,0.1-1.5,0.2c-2,0.2-3.5,0.4-3.7,1.4
			l-1.1-0.2c0.4-1.9,2.8-2.1,4.7-2.3c0.9-0.1,1.7-0.2,2.3-0.4c0.8-1.6,1.7-3.2,3.1-4.4c-0.1-0.3-0.1-0.7-0.1-1l-0.1-1.5l0-1.5
			c0,0,0-0.1,0-0.1c-0.2,0.1-0.4,0.3-0.6,0.4c-0.3,0.8-0.8,1.6-1.3,2.3c-0.7,1-1.4,2-1.4,3l-1.1,0.1c-0.1-1.4,0.8-2.6,1.6-3.7
			c0.1-0.2,0.3-0.4,0.4-0.6c-1.1,0.6-2.3,1-3.6,1c-1,0-2.1-0.3-3.3-0.9l0.5-1c3.4,1.8,5.8,0.1,8.9-2h0l0.1-1.4
			c0.2-1,0.3-1.9,0.6-2.9c0.1-0.5,0.3-1,0.4-1.4l0.5-1.4c0.4-0.9,0.8-1.8,1.2-2.7c0.4-0.7,0.8-1.5,1.2-2.2c-0.7-0.1-1.3-0.3-1.8-0.5
			c-0.5,0.7-1.1,1.4-1.6,2.1c-2.3,3-4.3,5.5-3.9,9.4l-1.1,0.1c-0.3-3.3,0.9-5.7,2.5-8c-0.5,0.2-1.1,0.5-1.6,0.9
			c-0.2,0.1-0.5,0.3-0.7,0.4c-0.6,0.4-1.5,0.5-2.3,0.6c-1,0.1-2,0.3-2.3,0.9l-1-0.5c0.6-1.1,2-1.3,3.2-1.4c0.7-0.1,1.4-0.2,1.9-0.4
			c0.2-0.1,0.5-0.3,0.7-0.4c1-0.6,2-1.2,3.3-1.5l0,0.1c0.2-0.2,0.4-0.5,0.6-0.7c0.5-0.6,1-1.3,1.5-1.9c-0.3-0.2-0.6-0.4-0.8-0.6
			c-0.2-0.1-0.4-0.1-0.6-0.2c-1.5-0.6-3.5-1.4-4.3-0.3l-0.9-0.7c1.1-1.4,3-1,4.5-0.4c-0.7-1.3-0.9-3-0.7-5.1l1.1,0.1
			c-0.2,2.5,0.3,4.3,1.3,5.5c0.9,0.9,2.2,1.5,3.8,1.7c0.4-0.6,0.8-1.2,1.1-1.7c1.7-2.4,3.5-4.6,5.3-6.7c-0.1,1.5-0.2,4.7-0.1,6.4v0
			C125.6,269.3,124.8,270.2,124.1,271z M153.2,296.3c-0.2-1.1-1.7-1.3-3.7-1.4c-0.5,0-1.1-0.1-1.5-0.2c0.1,0.3,0.2,0.5,0.4,0.8
			c0.4,0.8,1,1.6,1.6,2.5c1,1.4,2.1,2.9,2.4,4.5l-1.1,0.2c-0.3-1.4-1.3-2.8-2.3-4.1c-0.6-0.9-1.3-1.7-1.7-2.6
			c-0.2-0.5-0.5-0.9-0.7-1.4c-0.7-1.5-1.5-3.1-2.6-4.3c0,0.2-0.1,0.4-0.1,0.5c-0.2,1-0.5,1.8-0.7,2.7c-0.3,0.9-0.6,1.8-0.9,2.7
			c-0.6,1.8-1.3,3.5-2,5.2l-1.1-0.4c0.6-1.8,1.1-3.5,1.6-5.3c0.2-0.9,0.5-1.7,0.6-2.6c0.2-0.9,0.4-1.9,0.5-2.7
			c0.1-0.9,0.2-1.8,0.2-2.7l0-1.3l-0.1-1.3c0-0.4-0.1-0.9-0.2-1.3l-0.1-0.4c-0.1,0.4-0.2,0.8-0.2,1.2c0,0.5,0,1,0.1,1.5
			c0.1,1.7,0.2,3.6-0.6,5c0.1,1.9-0.5,3.5-1.2,5.1c-0.3,0.8-0.7,1.7-0.9,2.5l-1.1-0.3c0.2-0.9,0.6-1.8,0.9-2.7
			c0.5-1.2,0.9-2.3,1.1-3.5c-0.6,0.5-1.5,0.8-2.6,1l-0.2-1.1c3.7-0.7,3.6-3.1,3.5-6.1c0-0.5,0-1-0.1-1.5c0-1.2,0.3-2.1,0.9-3
			c-0.1-0.6-0.3-1.1-0.5-1.7c-0.2-0.4-0.3-0.8-0.5-1.2l0-0.1c-0.2,0.2-0.5,0.3-0.7,0.5c-0.2,0.1-0.4,0.3-0.6,0.4
			c0,0.3,0.1,0.6,0.1,0.9c0.1,0.7,0.2,1.4,0.4,2l-1.1,0.3c-0.2-0.7-0.3-1.4-0.4-2.1c-0.4,0.6-0.9,1.2-1.8,1.4l-0.2-1.1
			c0.4-0.1,0.7-0.5,1.1-1.1c0.2-0.3,0.5-0.7,0.8-1c0.3-0.3,0.7-0.5,1-0.7c0.4-0.2,0.6-0.4,0.8-0.6l0-0.1c-0.4-0.8-0.8-1.6-1.3-2.3
			c-0.5-0.7-0.9-1.5-1.5-2.2c-0.5-0.7-1.1-1.4-1.6-2.1c-0.7-0.9-1.5-1.7-2.2-2.5c0,0,0,0,0,0c0.1-1.7,0-4.9-0.1-6.4
			c1.8,2.2,3.6,4.4,5.3,6.7c0.4,0.6,0.8,1.1,1.1,1.7c1.7-0.2,3-0.8,3.8-1.7c1.1-1.2,1.5-3.1,1.3-5.5l1.1-0.1c0.2,2-0.1,3.7-0.7,5.1
			c1.6-0.6,3.4-1,4.5,0.4l-0.9,0.7c-0.8-1.1-2.8-0.3-4.3,0.3c-0.2,0.1-0.4,0.2-0.6,0.2c-0.2,0.2-0.5,0.4-0.8,0.6
			c0.5,0.7,1,1.3,1.5,1.9c0.2,0.2,0.4,0.5,0.6,0.7l0-0.1c1.3,0.3,2.3,0.8,3.3,1.5c0.2,0.1,0.4,0.3,0.7,0.4c0.4,0.3,1.2,0.4,1.9,0.4
			c1.2,0.2,2.6,0.3,3.2,1.4l-1,0.5c-0.3-0.6-1.3-0.7-2.3-0.9c-0.8-0.1-1.6-0.2-2.3-0.6c-0.2-0.1-0.5-0.3-0.7-0.4
			c-0.6-0.3-1.1-0.6-1.6-0.9c1.6,2.3,2.8,4.7,2.5,8l-1.1-0.1c0.4-3.9-1.6-6.5-3.9-9.4c-0.5-0.7-1.1-1.4-1.6-2.1
			c-0.6,0.2-1.2,0.4-1.8,0.5c0.4,0.7,0.8,1.4,1.2,2.2c0.4,0.9,0.9,1.8,1.2,2.7l0.5,1.4c0.2,0.5,0.3,0.9,0.4,1.4
			c0.3,0.9,0.4,1.9,0.6,2.9l0.1,1.4h0c3,2.1,5.5,3.8,8.9,2l0.5,1c-1.2,0.6-2.3,0.9-3.3,0.9c-1.3,0-2.4-0.4-3.6-1
			c0.1,0.2,0.3,0.4,0.4,0.6c0.8,1.1,1.7,2.3,1.6,3.7l-1.1-0.1c0.1-1-0.6-2-1.4-3c-0.5-0.7-1.1-1.5-1.3-2.3c-0.2-0.1-0.4-0.3-0.6-0.4
			c0,0,0,0.1,0,0.1l0,1.5l-0.1,1.5c0,0.3-0.1,0.7-0.1,1c1.4,1.2,2.3,2.8,3.1,4.4c0.5,0.2,1.4,0.3,2.3,0.4c1.9,0.2,4.3,0.4,4.7,2.3
			L153.2,296.3z"/>
	</g>
	<polyline fill="none" stroke="#BA3E3E" stroke-width="3" stroke-miterlimit="10" points="372.7,386 372.7,275.2 191.4,275.2 	"/>
	<line fill="none" stroke="#BA3E3E" stroke-width="3" stroke-miterlimit="10" x1="725.2" y1="440.7" x2="961.6" y2="440.7"/>
	<line fill="none" stroke="#BA3E3E" stroke-width="3" stroke-miterlimit="10" x1="1017.2" y1="271" x2="1182.9" y2="271"/>
	<polyline fill="none" stroke="#BA3E3E" stroke-width="3" stroke-miterlimit="10" points="968.7,531.2 1266.8,531.2 1266.8,500.5 	
		"/>
	<g>
		<path fill="#FFFFFF" d="M688.5,432.6c-4.1-13.8-16.9-14.8-23.5-10.3c-0.4-0.5-0.8-1-1.3-1.5c-0.3-0.3-0.5-0.6-0.8-1
			c-0.3-0.3-0.5-0.6-0.8-1c-0.5-0.6-1-1.3-1.5-1.9l-6,2.4c0.2,1,0.4,2,0.7,2.9c0.1,0.5,0.3,0.9,0.4,1.4c0.2,0.5,0.3,0.9,0.5,1.4
			c0.7,1.8,1.5,3.5,2.5,5.2c0.5,0.9,1,1.7,1.5,2.5c0.1,0.1,0.1,0.2,0.2,0.3c-3.6,24.9-14.3,22.3-14.3,22.3c-1.8,0.3-3.1,0.7-4.1,1.4
			c0,0-0.1,0-0.2,0c-0.7-0.1-1.4-0.2-2.1-0.3c-1.4-0.3-2.7-0.7-4.1-1.3c-0.3-0.1-0.7-0.3-1-0.5c-0.3-0.2-0.6-0.3-1-0.5l-1-0.6
			c-0.3-0.2-0.6-0.4-1-0.6h0l-0.4-0.3c-1.4-0.9-3.3-0.9-4.7,0.2c-0.1,0.1-0.2,0.2-0.3,0.2l-0.1,0.1c-0.1,0.1-0.2,0.2-0.2,0.2
			c-0.1,0.1-0.2,0.2-0.3,0.4c-0.1,0.1-0.2,0.2-0.2,0.3c-0.1,0.1-0.2,0.2-0.2,0.3c-0.1,0.2-0.3,0.4-0.4,0.6l-0.3,0.6
			c-0.1,0.2-0.2,0.4-0.3,0.6c-0.1,0.2-0.2,0.4-0.2,0.6c-0.1,0.4-0.3,0.7-0.4,1.1c-0.1,0.4-0.2,0.7-0.3,1.1c-0.1,0.3-0.2,0.7-0.2,1
			l-0.2,1l-0.1,1c0,0.3-0.1,0.7-0.1,1l0,1l0,1c0,0.3,0,0.6,0,1l0.1,0.9c0,0.3,0,0.6,0.1,0.9l0.2,1.9l6.5-0.5l0-1.6
			c0-0.3,0-0.5,0-0.8l0-0.8c0-0.3,0.1-0.5,0.1-0.8l0.1-0.8l0.1-0.7c0-0.2,0.1-0.5,0.1-0.7l0.1-0.5c0.3,0.2,0.6,0.4,1,0.6
			c1.8,1.1,3.7,2,5.8,2.6c1.6,0.5,3.2,0.9,4.9,1.1C656.2,481.4,695.2,455.2,688.5,432.6z M684.9,441.8c-0.4,2.4-1.4,5.1-3,7.7
			c-0.8,1.3-1.7,2.6-2.7,3.8c-0.5,0.6-1.1,1.2-1.6,1.8c-0.6,0.6-1.1,1.2-1.7,1.7c-1.2,1.1-2.4,2.1-3.7,3.1c-0.6,0.5-1.3,0.9-1.9,1.3
			c-0.6,0.4-1.3,0.8-2,1.2c-1.3,0.8-2.6,1.4-3.9,1.9c-1.3,0.6-2.5,1-3.6,1.3c-0.6,0.2-1.1,0.3-1.7,0.4c-0.5,0.1-1,0.2-1.5,0.3
			c-0.5,0.1-0.9,0.1-1.3,0.2c-0.4,0-0.8,0-1.2,0c-0.7,0.1-1.2,0-1.6,0c-0.4,0-0.6,0-0.6,0s0.2,0,0.6-0.1c0.4-0.1,0.9-0.1,1.6-0.3
			c0.3-0.1,0.7-0.2,1.1-0.2c0.4-0.1,0.8-0.2,1.3-0.4c0.5-0.1,0.9-0.3,1.4-0.5c0.5-0.2,1-0.4,1.5-0.6c0.5-0.2,1.1-0.4,1.6-0.7
			c0.6-0.3,1.1-0.5,1.7-0.9c0.6-0.3,1.2-0.6,1.8-1c0.6-0.4,1.2-0.7,1.8-1.1c1.2-0.8,2.4-1.7,3.6-2.6c1.2-0.9,2.3-1.9,3.4-3
			c0.6-0.5,1.1-1.1,1.6-1.6c0.5-0.6,1-1.1,1.5-1.7c0.5-0.6,1-1.2,1.4-1.7c0.4-0.6,0.9-1.2,1.3-1.8c1.6-2.4,2.7-4.8,3.4-7
			c0.3-1.1,0.5-2.1,0.6-3c0.1-0.5,0.1-0.9,0.1-1.3c0-0.4,0-0.8,0-1.1c0-0.7-0.1-1.2-0.1-1.6c-0.1-0.4-0.1-0.6-0.1-0.6
			s0.1,0.2,0.2,0.5c0.1,0.3,0.3,0.8,0.5,1.5c0.1,0.3,0.2,0.7,0.2,1.1c0.1,0.4,0.1,0.9,0.1,1.4C685.2,439.5,685.1,440.6,684.9,441.8z
			"/>
	</g>
	<g>
		<path fill="#FFFFFF" d="M638.5,831.4c-14.2-0.4-22.1-7-29.9-0.2c-7.3,6.4-1.2,42,4.7,42c6.9,0,14-10.5,22.8-13.7
			c0.2-0.1,0.4-0.3,0.6-0.4c0.4-0.3,0.8-0.6,1.2-0.9c0.4-0.3,0.8-0.7,1.3-1c0.4-0.4,0.8-0.8,1.3-1.2c0.4-0.4,0.8-0.8,1.2-1.2
			c0.4-0.4,0.8-0.8,1.1-1.2c0.7-0.8,1.4-1.6,1.9-2.3c1.1-1.4,1.8-2.3,1.8-2.3s-0.5,1-1.4,2.6c-0.4,0.8-1,1.7-1.5,2.6
			c-0.3,0.5-0.6,0.9-0.9,1.4c-0.3,0.5-0.6,1-1,1.5c-0.4,0.5-0.7,1-1.1,1.4c0,0,0,0-0.1,0.1c11.2-1.2,26.9-12.3,26.9-21
			C667.5,831.4,652.9,831.8,638.5,831.4z"/>
	</g>
	<g>
		<path fill="#FFFFFF" d="M1272.4,268.6c0,0.1,0,0.1,0,0.2c0,0.3,0,0.7,0,1.1c0.1,0.8,0,1.6,0,2.5c0,0.9-0.1,1.8-0.2,2.7
			c-0.2,1.9-0.5,3.8-0.9,5.8c0,0.2-0.1,0.5-0.1,0.7c0,0.1,0,0.2,0,0.3c0.1,0.4,0.2,1.1,0.3,1.8c0.2,0.7,0.4,1.6,0.8,2.4
			c0.4,0.8,1.1,1.6,1.9,2.2c0.4,0.3,0.8,0.6,1.3,0.9c0.4,0.3,0.7,0.5,1.1,0.7c0,0,0.1-0.1,0.1-0.1c0.1-0.1,0.3-0.3,0.6-0.4
			c0.5-0.3,1.3-0.6,2-0.8c0.8-0.2,1.6-0.2,2.2-0.2c0.3,0,0.5,0.1,0.7,0.2c0.2,0.1,0.2,0.1,0.2,0.1s-0.1,0-0.2-0.1
			c-0.2-0.1-0.4-0.1-0.7-0.2c-0.6-0.1-1.4,0-2.1,0.2c-0.8,0.2-1.5,0.5-2,0.8c-0.2,0.2-0.4,0.3-0.5,0.4c0,0-0.1,0.1-0.1,0.1
			c0.4,0.3,0.7,0.6,1.1,0.8c0.3,0.3,0.6,0.6,0.9,0.8c0.6,0.5,1,1,1.4,1.3c0.3,0.3,0.5,0.5,0.5,0.5s-0.2-0.2-0.5-0.5
			c-0.3-0.3-0.8-0.7-1.4-1.2c-0.3-0.2-0.6-0.5-1-0.8c-0.4-0.2-0.7-0.5-1.1-0.8c-0.4-0.3-0.8-0.5-1.3-0.8c-0.4-0.3-0.9-0.5-1.3-0.8
			c-0.9-0.6-1.7-1.4-2.2-2.3c-0.5-0.8-0.8-1.6-1-2.3c-0.1,0.9-0.2,1.8-0.3,2.6c-0.1,0.9-0.1,1.8-0.1,2.6c0.1,0.8,0.1,1.6,0.2,2.4
			c0.1,0.4,0.1,0.7,0.2,1c0.1,0.3,0.2,0.6,0.3,0.9c0.2,0.6,0.3,1.1,0.5,1.5c0.4,0.8,0.6,1.2,0.6,1.2s-0.2-0.4-0.6-1.2
			c-0.2-0.4-0.4-0.9-0.6-1.4c-0.1-0.3-0.2-0.6-0.3-0.9c-0.1-0.3-0.2-0.7-0.2-1c-0.2-0.7-0.3-1.5-0.4-2.4c-0.1-0.9-0.1-1.8-0.1-2.7
			c0-0.9,0-1.9,0.1-2.9c0-0.7,0.1-1.4,0.2-2c-0.1-0.3-0.1-0.4-0.1-0.4s0.2-0.4,0.2-0.5c0.2-2,0.4-3.9,0.5-5.8c0-0.4,0-0.7,0-1.1
			c-0.4,0.4-1,0.9-1.5,1.5c-0.8,0.9-1.6,1.9-2.2,3.1c-0.3,0.6-0.5,1.3-0.7,2c-0.2,0.7-0.3,1.5-0.4,2.3c-0.2,0.8-0.4,1.6-0.8,2.4
			c-0.1,0.2-0.2,0.3-0.3,0.4c0,0.1,0.1,0.2,0.2,0.3c0.1,0.1,0.2,0.3,0.3,0.6c0.1,0.2,0.2,0.5,0.3,0.8c0.2,0.6,0.3,1.3,0.4,2
			c0,0.7,0,1.5,0,2.3c-0.1,1.5-0.2,3-0.1,4.2c0.1,0.6,0.2,1,0.3,1.3c0.1,0.3,0.2,0.5,0.2,0.5s-0.1-0.2-0.2-0.5
			c-0.1-0.3-0.3-0.8-0.4-1.3c-0.3-1.1-0.3-2.7-0.3-4.2c0-0.1,0-0.1,0-0.2c-0.2,0.2-0.4,0.5-0.6,0.8c-0.3,0.4-0.6,0.9-0.9,1.4
			c-0.3,0.5-0.6,1.1-0.9,1.6c-0.3,0.6-0.6,1.1-0.8,1.7c-0.2,0.6-0.4,1.1-0.5,1.6c-0.2,0.5-0.2,0.9-0.2,1.1c0,0.3-0.1,0.4-0.1,0.4
			s0-0.2,0.1-0.4c0-0.3,0.1-0.7,0.2-1.1c0.1-0.5,0.3-1,0.5-1.6c0.2-0.6,0.5-1.1,0.7-1.7c0.3-0.6,0.6-1.2,0.9-1.7
			c0.3-0.5,0.6-1,0.9-1.4c0.3-0.5,0.6-0.9,0.7-1.1c0-0.6-0.1-1.1-0.1-1.6c-0.1-0.7-0.3-1.3-0.5-1.8c-0.1-0.3-0.2-0.5-0.3-0.7
			c-0.1-0.2-0.2-0.3-0.2-0.4c-0.2,0.2-0.4,0.4-0.6,0.6c-1.1,1.1-2.2,1.9-3,2.8c-0.4,0.4-0.7,0.9-0.8,1.3c-0.2,0.4-0.3,0.8-0.4,1.2
			c-0.1,0.3-0.1,0.6-0.1,0.8c0,0.2,0,0.3,0,0.3s0-0.1,0-0.3c0-0.2,0-0.5,0-0.8c0-0.3,0.1-0.8,0.3-1.2c0.2-0.5,0.4-1,0.8-1.5
			c0.7-1,1.8-1.9,2.7-3c0.5-0.5,0.9-1.2,1.2-1.8c0.3-0.7,0.4-1.4,0.5-2.2c0.1-0.8,0.1-1.6,0.2-2.4c0-0.4,0.1-0.8,0.2-1.2
			c-0.1-0.1-0.1-0.1-0.3-0.2c-0.1-0.1-0.2-0.2-0.4-0.2c-0.1-0.1-0.3-0.1-0.5-0.1c-0.4,0-0.9,0.2-1.4,0.6c-0.5,0.4-1,0.9-1.6,1.3
			c-0.1,0.1-0.3,0.2-0.4,0.3c-0.1,0-0.1,0.1-0.2,0.1c0,0,0,0.1,0.1,0.2c0.1,0.2,0.2,0.6,0.3,1c0.1,0.4,0,0.9-0.1,1.4
			c-0.1,0.5-0.3,1-0.5,1.5c-0.4,1-1,1.9-1.4,2.6c-0.4,0.7-0.7,1.1-0.7,1.1s0.3-0.5,0.7-1.2c0.4-0.7,1-1.6,1.4-2.6
			c0.2-0.5,0.4-1,0.4-1.5c0.1-0.5,0.1-1,0-1.4c0-0.2-0.1-0.4-0.1-0.5c0-0.1-0.1-0.3-0.2-0.4c0-0.1-0.1-0.1-0.1-0.2
			c0,0-0.1,0-0.1,0.1c-0.3,0.2-0.6,0.3-0.9,0.4c-0.6,0.2-1.2,0.5-1.6,0.7c-0.4,0.3-0.7,0.6-0.8,0.9c-0.1,0.3-0.1,0.5-0.1,0.5
			c0,0,0-0.2,0.1-0.5c0.1-0.3,0.3-0.7,0.8-1c0.4-0.3,1-0.6,1.6-0.9c0.3-0.1,0.6-0.3,0.9-0.5c0.1-0.1,0.3-0.2,0.4-0.3
			c0.1-0.1,0.3-0.2,0.4-0.3c0.5-0.5,1-1,1.5-1.4c0.5-0.4,1.1-0.8,1.8-0.9c0.3,0,0.6,0.1,0.9,0.1c0.2,0.1,0.4,0.2,0.6,0.3
			c0-0.1,0.1-0.2,0.1-0.3c0.6-1.5,1.4-2.7,2.2-3.6c0.8-1,1.5-1.7,2-2.2c0.5-0.5,0.8-0.8,0.8-0.8c0-0.5,0-0.9-0.1-1.4
			c0-0.4-0.1-0.7-0.1-1c-0.1-0.3-0.1-0.6-0.2-0.9c-0.1-0.5-0.2-0.9-0.5-1.3c-0.4-0.6-0.8-1.2-1.5-1.6c-0.7-0.4-1.6-0.4-2.4-0.5
			c0-0.3,0-0.5,0.2-0.8c0.3-0.6,1.7-2.5,8.2-3.5c2.4-0.4,1-8.9-1.3-8.5c-0.7,0.1-1.5,0.3-2.1,0.4c-0.4,0.3-0.9,0.6-1.5,0.9
			c-6.1,2.6-9.9,5.7-10.6,8.8c-0.4,1.8,0.1,3.6,0.7,4.7l-1.3,0.7c-0.6-1.1-1.7-3.2-1.1-5.5c0.7-3.1,4.5-6.3,10.6-8.8
			c3.1-1.3,0.2-11.6-2.1-11.7c-0.4-1.6-0.7-3.8-0.3-6.3c0.2-1.4-4.7-2.2-4.9-0.9c-0.6,3.4-0.2,6.4,0.4,8.5c-0.3,0.1-0.5,0.3-0.8,0.4
			c-0.6-2.2-1.2-5.3-0.5-8.9c0-0.1,0.1-0.3,0.1-0.4c-0.4-1.1-5-0.2-4.8,1.1c0.2,2,1.2,6.9,1.9,10c0,0,0,0-0.1,0
			c-1.4-2.7-3.5-6.4-5.6-8.6c-1-1-4.5,2.5-3.6,3.5c1.7,1.8,3.7,5.3,5.1,8c-3.9,3.2-6.3,6.9-7.3,11.1c-1.2,5.1,0,9.6,1.5,12.7
			l-0.8,0.2c-1.5-3.1-2.8-7.6-1.6-12.9c0.7-3,2.2-5.7,4.3-8.2c0.6-1.7-6.3-5.7-7.6-3.8c-1.3,1.8-2.9,5.6-2,16.5
			c0.4,5.5,1.3,10.3,1.3,10.5c0.1,0.3,0.2,0.6,0.3,0.9c-0.7,0.8-1.3,1.7-1.6,2.6c0,0.1-0.1,0.2-0.1,0.4c0.1,0,0.2,0,0.3,0.1
			c0.6,0.2,1.3,0.4,1.9,0.8c0,0,0.1,0.1,0.1,0.1c0-0.1,0.1-0.2,0.1-0.3c0.1-0.1,0.2-0.2,0.3-0.3c0.3-0.2,0.6-0.2,1-0.2
			c0.3,0,0.7,0.1,1,0.1c0.1,0,0.2,0,0.2,0c0.1,0,0.2,0,0.2,0c0.2,0,0.3-0.1,0.5-0.1c0.3-0.1,0.6-0.1,0.9-0.1c0.3,0,0.5,0.1,0.6,0.2
			c0.1,0.1,0.2,0.2,0.2,0.2c0,0-0.1-0.1-0.2-0.1c-0.1-0.1-0.3-0.1-0.6-0.1c-0.3,0-0.5,0.1-0.8,0.2c-0.2,0-0.3,0.1-0.5,0.1
			c0,0,0,0-0.1,0c0,0,0,0,0,0.1c0,0.1,0,0.1,0.1,0.2c0,0.1,0.1,0.2,0.1,0.2c0.1,0.2,0.2,0.4,0.4,0.5c0.2,0.2,0.4,0.3,0.6,0.5
			c0.5,0.3,1,0.5,1.3,0.6c0.4,0.1,0.6,0.2,0.6,0.2s-0.3-0.1-0.6-0.2c-0.4-0.1-0.9-0.3-1.3-0.6c-0.2-0.1-0.5-0.3-0.6-0.5
			c-0.2-0.2-0.3-0.4-0.4-0.5c-0.1-0.2-0.2-0.4-0.2-0.5c0,0,0-0.1,0-0.1c0,0-0.1,0-0.1,0c-0.1,0-0.2,0-0.3,0c-0.4,0-0.7-0.1-1,0
			c-0.3,0-0.6,0.1-0.7,0.2c-0.1,0.1-0.1,0.1-0.2,0.2c0,0.1,0,0.1-0.1,0.2c0,0.1,0,0.1,0,0.2c0.2,0.1,0.3,0.3,0.4,0.4
			c0.3,0.3,0.5,0.6,0.8,0.9c0.3,0.3,0.5,0.5,0.8,0.7c0.3,0.2,0.7,0.3,1,0.4c0.7,0.2,1.4,0.2,2,0.4c0.3,0.1,0.5,0.2,0.7,0.3
			c0.2,0.1,0.4,0.3,0.5,0.4c0.1,0.1,0.2,0.2,0.3,0.3c0.1,0.1,0.1,0.1,0.1,0.1s0,0-0.1-0.1c-0.1-0.1-0.1-0.2-0.3-0.3
			c-0.1-0.1-0.3-0.2-0.5-0.4c-0.2-0.1-0.5-0.2-0.7-0.3c-0.6-0.1-1.2-0.1-2-0.2c-0.1,0-0.3-0.1-0.4-0.1c0,0.1,0,0.2,0,0.2
			c0,0.1,0,0.2,0.1,0.3c0.1,0.3,0.2,0.5,0.4,0.8c0.1,0.2,0.3,0.4,0.4,0.7c0.1,0,0.3,0.1,0.6,0.2c0.2,0.1,0.5,0.2,0.8,0.3
			c0.3,0.1,0.6,0.3,0.8,0.4c0.3,0.2,0.6,0.3,0.8,0.5c0.3,0.2,0.5,0.3,0.7,0.5c0.2,0.1,0.3,0.3,0.4,0.4c0.1,0.1,0.2,0.2,0.2,0.2
			s-0.1-0.1-0.2-0.2c-0.1-0.1-0.2-0.2-0.4-0.4c-0.2-0.1-0.4-0.3-0.7-0.5c-0.2-0.2-0.5-0.3-0.8-0.5c-0.3-0.1-0.6-0.3-0.9-0.4
			c-0.3-0.1-0.5-0.2-0.8-0.3c-0.2-0.1-0.4-0.1-0.5-0.2c0,0,0,0.1,0.1,0.1c0.4,0.6,0.9,1.2,1.1,1.7c0.1,0.3,0.2,0.5,0.2,0.6
			c0,0.2,0.1,0.2,0.1,0.2s0-0.1-0.1-0.2c-0.1-0.2-0.1-0.4-0.3-0.6c-0.3-0.5-0.8-1.1-1.3-1.6c-0.2-0.3-0.5-0.6-0.7-0.9
			c-0.2-0.3-0.4-0.6-0.5-0.9c-0.1-0.1-0.1-0.3-0.1-0.4c0-0.1-0.1-0.2-0.1-0.3c0-0.1,0-0.1,0-0.2c-0.1,0-0.2-0.1-0.2-0.1
			c-0.4-0.2-0.7-0.4-1-0.7c-0.3-0.3-0.6-0.5-0.8-0.8c-0.3-0.2-0.6-0.4-0.9-0.6c-0.6-0.3-1.3-0.5-1.8-0.6c-0.1,0-0.2,0-0.3-0.1
			c-0.1,0.2-0.1,0.4-0.2,0.6c0.5,0.6,1.1,1.2,1.7,1.9c0.1,0.1,0.2,0.2,0.2,0.2s0,0.1,0.1,0.2c0.2,0.2,0.5,0.5,0.7,0.8
			c0.3,0.4,0.6,0.7,0.9,1.1c0.3,0.4,0.5,0.7,0.8,1.1c0.2,0.4,0.4,0.7,0.6,1.1c0.1,0.2,0.1,0.3,0.2,0.5c0.1,0.2,0.1,0.3,0.1,0.5
			c0.1,0.3,0.2,0.5,0.2,0.7c0.1,0.4,0.1,0.7,0.1,0.7s-0.1-0.2-0.1-0.7c0-0.2-0.1-0.5-0.2-0.7c-0.1-0.1-0.1-0.3-0.2-0.4
			c-0.1-0.1-0.2-0.3-0.2-0.5c-0.2-0.3-0.4-0.6-0.6-1c-0.2-0.3-0.5-0.7-0.8-1c-0.3-0.3-0.6-0.6-0.9-1c0.1,0.3,0.3,0.8,0.3,1.2
			c0.1,0.5,0,1-0.2,1.5c-0.1,0.2-0.2,0.5-0.3,0.7c-0.1,0.2-0.2,0.5-0.3,0.7c-0.1,0.2-0.2,0.4-0.2,0.6c-0.1,0.2-0.1,0.4-0.2,0.6
			c-0.1,0.4-0.2,0.7-0.2,0.9c0,0.2-0.1,0.3-0.1,0.3s0-0.1,0.1-0.3c0-0.2,0.1-0.5,0.2-0.9c0-0.2,0.1-0.4,0.1-0.6
			c0.1-0.2,0.1-0.4,0.2-0.6c0,0,0,0-0.1,0c-0.1,0-0.2,0-0.3,0c-0.3,0-0.7,0.1-1,0.3c-0.4,0.1-0.7,0.3-0.9,0.5
			c-0.1,0.1-0.2,0.2-0.2,0.3c0,0.1-0.1,0.1-0.1,0.1s0,0,0.1-0.1c0-0.1,0.1-0.2,0.2-0.3c0.2-0.2,0.5-0.4,0.9-0.6
			c0.4-0.2,0.7-0.3,1-0.3c0.1,0,0.3,0,0.4,0c0,0,0.1,0,0.1,0c0.1-0.2,0.1-0.4,0.2-0.6c0.1-0.2,0.2-0.5,0.2-0.7
			c0.1-0.5,0.2-1,0.1-1.4c-0.1-0.5-0.2-0.9-0.4-1.2c-0.2-0.3-0.3-0.6-0.4-0.8c0,0,0-0.1-0.1-0.1c-0.1-0.1-0.2-0.2-0.2-0.2
			c-0.5-0.5-1-1-1.5-1.5c-7.2,28.9,28.9,29.1,41.9,28.2c2.5-0.2,4.9-2.4,5.2-4.9c0.1-0.4,0-0.9-0.1-1.3c0-0.4,0-0.9-0.1-1.3
			c0-0.9-0.1-1.7-0.2-2.6c-0.1-1.7-0.2-3.4-0.4-5.1c-0.2-1.6-0.3-3.2-0.6-4.7c-0.2-1.4-0.5-2.9-0.8-4.3c-0.3-1.3-0.7-2.5-1.1-3.8
			c-0.4-1.1-0.9-2.2-1.4-3.2c-0.5-0.9-1.1-1.8-1.7-2.7c-0.6-0.8-1.3-1.5-2-2.2c-0.7-0.7-1.4-1.3-2.2-1.8c-0.7-0.6-1.5-1.1-2.3-1.6
			C1272.7,268.8,1272.5,268.7,1272.4,268.6z"/>
	</g>
	<g>
		<g>
			<path fill="#FFFFFF" d="M1276.3,439.3c0.1,0,0.3,0,0.4,0l-0.1-0.5c-0.2-0.4-0.3-1-0.4-1.6c-0.2-0.7-0.2-1.5-0.2-2.2l0-0.1
				c0-0.1,0-0.2,0-0.3c0-0.3,0-0.6,0-0.8c-0.1,0-0.1,0-0.2,0v0c-5,0.7-7.7-2-7.8-2.1l-2,2l-2.1,1.9c0.1,0.1,2.3,2.4,6.3,3.5
				c-0.3,0.7-0.6,1.5-0.8,2.4c-0.3,0.9-0.5,1.9-0.7,2.9c-0.4,2-0.7,4.1-0.9,6.1c-0.4,4.1-0.6,8.3-0.7,11.3c0,1.5,0,2.8,0,3.7
				c0,0.9,0,1.4,0,1.4l3.8,0.1c0,0,0-0.5,0.1-1.4c0.1-0.9,0.1-2.1,0.3-3.6c0.2-3,0.6-7,1.3-10.9c0.3-2,0.7-3.9,1.2-5.6
				c0.2-0.9,0.5-1.7,0.7-2.4c0.3-0.7,0.5-1.4,0.8-2c0.1-0.3,0.3-0.6,0.4-0.8c0.1-0.1,0.1-0.2,0.2-0.3c0.1-0.1,0.1-0.1,0.2-0.2
				C1276.1,439.5,1276.2,439.4,1276.3,439.3z"/>
		</g>
		<g>
			<path fill="#FFFFFF" d="M1286.7,414.5c-9,0-14.9,10.2-7.4,13.5c0.2,0.1,0.4-0.3,0.5-0.4c1-0.6,1.9-0.8,2.6-0.8c0.3,0,0.6,0,0.7,0
				c0.2,0,0.3,0,0.3,0s-0.1,0-0.3,0.1c-0.2,0-0.4,0.1-0.7,0.2c-0.6,0.2-1.4,0.6-2.1,1.3c-0.4,0.3-0.7,0.8-1,1.2
				c-0.3,0.5-0.6,1-0.8,1.6c-0.1,0.3-0.2,0.6-0.3,0.9c-0.1,0.3-0.2,0.6-0.2,0.9c-0.1,0.3-0.1,0.6-0.1,0.9c0,0.3,0,0.7,0,1
				c0,0.6,0,1.3,0.2,1.9c0.1,0.6,0.3,1.2,0.5,1.8c0.2,0.6,0.5,1.1,0.8,1.6c0.3,0.4,0.7,0.9,1,1.2c0.7,0.7,1.5,1.1,2.1,1.3
				c0.3,0.1,0.5,0.2,0.7,0.2c0.2,0,0.3,0.1,0.3,0.1s-0.1,0-0.3,0c-0.2,0-0.4,0.1-0.7,0c-0.3,0-0.7-0.1-1.2-0.2
				c-0.4-0.1-0.9-0.3-1.4-0.6c-0.3-0.1-0.4-0.7-0.7-0.5c-7.2,3-1.1,13.6,7.6,13.6c11,0,19.7-10.8,19.7-22
				C1306.5,422,1298.6,414.5,1286.7,414.5z"/>
		</g>
		<g>
			<path fill="#FFFFFF" d="M1257.5,431.6c-0.1,0.1-2.8,2.8-7.8,2.1v0c-0.1,0-0.1,0-0.2,0c0,0.2,0,0.5,0,0.8c0,0.1,0,0.2,0,0.3l0,0.1
				c0,0.7-0.1,1.5-0.2,2.2c-0.1,0.6-0.3,1.1-0.4,1.6l-0.1,0.5c0.1,0,0.3,0,0.4,0c0.1,0.1,0.2,0.1,0.3,0.3c0.1,0.1,0.1,0.1,0.2,0.2
				c0.1,0.1,0.1,0.2,0.2,0.3c0.1,0.2,0.3,0.5,0.4,0.8c0.3,0.6,0.5,1.2,0.8,2c0.3,0.8,0.5,1.6,0.7,2.4c0.5,1.8,0.8,3.7,1.2,5.6
				c0.6,3.9,1,7.9,1.3,10.9c0.1,1.5,0.2,2.8,0.3,3.6c0,0.9,0.1,1.4,0.1,1.4l3.8-0.1c0,0,0-0.5,0-1.4c0-0.9,0-2.2,0-3.7
				c-0.1-3.1-0.2-7.2-0.7-11.3c-0.2-2.1-0.5-4.2-0.9-6.1c-0.2-1-0.4-1.9-0.7-2.9c-0.2-0.8-0.5-1.6-0.8-2.4c4-1,6.2-3.3,6.3-3.5
				l-2.1-1.9L1257.5,431.6z"/>
		</g>
		<g>
			<path fill="#FFFFFF" d="M1246.4,441.7c-0.3-0.1-0.5,0.4-0.7,0.5c-0.5,0.3-1,0.5-1.4,0.6c-0.4,0.1-0.8,0.2-1.2,0.2
				c-0.3,0-0.6,0-0.7,0c-0.2,0-0.3,0-0.3,0s0.1,0,0.3-0.1c0.2,0,0.4-0.1,0.7-0.2c0.6-0.2,1.4-0.6,2.1-1.3c0.4-0.3,0.7-0.8,1-1.2
				c0.3-0.5,0.6-1,0.8-1.6c0.2-0.6,0.4-1.2,0.5-1.8c0.1-0.6,0.2-1.3,0.2-1.9c0-0.3,0-0.8,0-1c0-0.3-0.1-0.6-0.1-0.9
				c-0.1-0.3-0.2-0.6-0.2-0.9c-0.1-0.3-0.2-0.6-0.3-0.9c-0.2-0.6-0.5-1.1-0.8-1.6c-0.3-0.4-0.7-0.9-1-1.2c-0.7-0.7-1.5-1.1-2.1-1.3
				c-0.3-0.1-0.5-0.2-0.7-0.2c-0.2,0-0.3-0.1-0.3-0.1s0.1,0,0.3,0c0.2,0,0.4-0.1,0.7,0c0.6,0,1.6,0.2,2.6,0.8
				c0.2,0.1,0.3,0.5,0.5,0.4c7.4-3.3,1.5-13.5-7.4-13.5c-11.9,0-19.7,7.5-19.7,18.7c0,11.3,8.8,22,19.7,22
				C1247.5,455.3,1253.6,444.6,1246.4,441.7z"/>
		</g>
	</g>
</g>
</svg>
